<svg xmlns="http://www.w3.org/2000/svg" width="197" height="197" viewBox="0 0 197 197" fill="none">
<rect width="197" height="197" rx="40" fill="#AF352E"/>
<rect width="120" height="181.782" transform="translate(38 8)" fill="#AF352E"/>
<g clip-path="url(#clip0_2_37)">
<path fill-rule="evenodd" clip-rule="evenodd" d="M93.965 60.9091C93.965 49.326 86.6653 45.6681 92.7484 40.791C94.5734 40.1814 93.965 37.7429 93.965 35.9139C93.965 27.379 93.965 18.8441 93.965 9.69952C98.2232 7.26097 114.039 7.26097 112.215 10.9188C110.998 14.5766 113.431 18.8441 113.431 22.5019C114.648 37.1332 115.864 51.7645 115.864 66.3958C115.864 68.2247 117.081 69.444 118.906 70.0536C123.164 73.1018 124.989 73.7115 128.639 77.3693C132.897 81.6368 134.722 83.4657 140.805 85.2946C143.847 86.5139 156.622 89.5621 157.838 91.391C158.446 92.6102 157.23 93.2199 156.013 93.2199C153.58 92.6102 149.93 91.391 147.497 90.7813C140.197 89.5621 134.114 88.3428 128.031 84.0753C127.422 83.4657 124.381 81.6368 123.164 82.2464C121.948 82.856 123.164 85.9042 123.773 87.1235C124.381 88.9524 126.814 90.7813 128.639 92.6102C129.856 93.2199 133.506 97.4873 132.897 98.7066C132.897 99.9259 131.681 99.3163 131.072 98.7066C129.856 98.097 127.422 95.6584 126.206 94.4392C123.773 92.6102 121.948 92.0006 119.514 90.1717C118.906 89.5621 117.081 86.5139 115.864 87.7331C115.256 88.3428 115.864 92.0006 115.864 93.2199C117.689 97.4873 121.948 99.3163 126.206 100.536C128.639 101.145 129.856 102.364 132.289 102.364C134.722 103.584 136.547 104.193 138.98 104.803C148.105 108.461 149.93 111.509 155.405 118.215C155.405 118.825 156.622 120.044 155.405 120.044C153.58 120.654 149.93 115.776 148.713 114.557C143.847 109.68 138.98 109.07 132.897 107.851C131.072 107.242 130.464 107.242 130.464 109.07C130.464 112.119 134.722 122.482 135.939 124.921C137.764 127.969 140.197 129.798 142.63 132.237C142.63 132.846 145.672 136.504 144.455 137.114C143.239 137.114 140.805 134.066 140.197 132.846C137.155 129.189 134.722 128.579 132.289 123.702C128.639 117.605 124.989 108.461 116.473 107.242C114.039 107.242 114.039 108.461 113.431 110.899V111.509C112.823 115.776 114.648 120.654 117.689 124.311C120.123 126.75 122.556 129.189 124.989 131.627C126.206 132.846 128.639 134.675 130.464 136.504C135.331 140.162 137.764 141.991 141.414 148.087C142.63 151.135 143.847 152.964 146.28 155.403C146.889 156.013 149.93 158.451 148.713 159.061C148.105 159.061 146.28 157.841 145.672 157.232C142.022 154.184 140.805 152.355 138.98 148.697C136.547 145.649 134.114 143.21 130.464 141.991C128.639 141.381 126.814 141.381 127.422 143.82C128.031 144.429 128.031 145.039 128.031 145.039C128.639 148.087 133.506 157.841 132.897 159.67C132.289 160.89 131.072 160.28 131.072 159.67C129.856 158.451 128.031 153.574 126.814 151.745C125.597 149.307 124.381 146.868 123.164 143.82C122.556 141.991 120.731 138.333 119.514 137.114C117.081 135.285 116.473 149.307 116.473 149.916C116.473 151.745 117.689 157.232 116.473 157.841C115.864 159.061 115.256 157.841 115.256 157.232C114.648 156.013 114.039 152.964 114.039 151.135C113.431 148.697 113.431 145.649 113.431 143.21C113.431 141.991 112.215 132.237 109.781 137.114C108.565 139.552 107.348 143.82 106.74 146.868C106.131 149.916 106.131 152.964 106.131 156.013C106.131 157.841 106.131 160.28 106.131 162.109C106.74 164.547 106.131 167.596 106.131 170.644C106.74 173.082 106.74 175.521 107.956 178.569C108.565 179.788 109.173 181.008 109.781 182.837C109.781 183.446 110.998 188.323 112.215 188.933C112.823 189.543 110.998 190.762 109.781 188.323C109.781 187.714 109.173 186.494 109.173 186.494C108.565 184.666 107.956 183.446 107.348 182.227C106.74 181.008 106.131 179.788 105.523 178.569C104.306 176.131 102.481 165.767 101.873 173.692C101.873 174.911 101.873 177.35 100.657 178.569C98.2232 179.788 99.4399 172.473 99.4399 171.863C99.4399 168.205 99.4399 165.157 99.4399 162.109C99.4399 160.28 100.657 153.574 96.3983 157.841C94.5734 159.67 93.965 162.719 92.7484 164.547C92.1401 166.376 89.0985 173.082 87.2736 173.692C86.0569 173.692 86.6653 172.473 86.6653 171.863C87.2736 169.425 89.0985 166.986 89.7068 164.547C90.9235 162.719 90.9235 161.499 91.5318 159.061C92.1401 155.403 94.5734 152.355 95.79 148.697C97.0066 145.039 98.2232 141.381 98.2232 137.723C98.2232 136.504 98.2232 134.675 98.2232 133.456C98.2232 132.237 98.2232 128.579 97.0066 127.969H96.3983C94.5734 127.36 92.7484 129.798 90.9235 131.017C89.0985 132.846 89.7068 132.846 89.0985 134.675C87.8819 137.114 86.6653 140.772 85.4486 143.21C82.407 149.307 80.5821 151.135 80.5821 158.451C80.5821 160.28 79.9738 166.986 78.7571 167.596C77.5405 168.205 77.5405 165.767 77.5405 165.157C77.5405 162.719 77.5405 161.499 77.5405 159.061C76.9322 156.622 76.9322 154.793 75.7156 152.964C75.1073 150.526 75.1073 149.307 76.3239 147.478C78.1488 145.039 78.1488 147.478 80.5821 143.82C81.1904 142.601 83.6237 137.723 83.0154 137.114C83.0154 136.504 82.407 136.504 81.7987 136.504C78.7571 135.895 76.3239 138.333 74.4989 140.162C71.4574 141.991 69.0241 143.21 65.9825 143.82C65.3742 143.82 62.9409 144.429 63.5493 143.21C63.5493 141.991 67.8075 140.162 69.6324 139.552C72.674 137.723 73.8906 135.285 76.9322 132.846C79.3655 131.017 82.407 129.798 84.8403 127.969C88.4902 125.531 89.0985 123.702 91.5318 120.654C93.3567 119.434 97.0066 115.776 97.0066 113.948C97.6149 112.728 97.0066 109.68 95.79 109.07C95.1817 108.461 93.965 108.461 92.7484 108.461C89.0985 108.461 83.0154 110.29 80.5821 112.728C77.5405 114.557 75.7156 118.215 75.1073 121.873C73.2823 128.579 69.0241 129.189 63.5493 132.237C62.9409 132.846 61.7243 133.456 61.116 132.237C60.5077 130.408 67.1992 127.969 68.4158 126.75C72.674 123.702 70.849 121.263 72.674 117.605C75.7156 109.07 78.1488 107.242 85.4486 102.974C89.7068 100.536 94.5734 96.2681 94.5734 90.7813C94.5734 89.5621 93.965 88.9524 92.1401 88.3428C89.0985 87.7331 84.8403 89.5621 81.7987 90.7813C78.7571 92.6102 73.2823 96.2681 70.849 98.7066C69.0241 100.536 67.8075 101.755 66.5908 102.974C64.1576 105.413 61.7243 108.461 61.116 111.509C59.291 116.386 58.6827 116.386 55.0328 120.044C54.4245 120.654 53.2079 121.873 53.2079 120.654C53.2079 120.044 56.2495 116.996 56.8578 115.776C58.6827 113.338 59.291 110.29 60.5077 107.851C62.3326 104.803 62.9409 102.974 65.3742 100.536C67.1992 98.7066 69.0241 96.2681 70.849 94.4392C72.0657 93.2199 78.1488 87.1235 72.674 88.3428C70.2407 88.3428 67.1992 90.1717 64.7659 91.391C59.291 94.4392 55.6412 102.364 51.3829 107.242C47.7331 110.899 44.0832 112.728 39.8249 115.167C37.3917 116.386 37.3917 115.167 39.8249 113.338C42.8665 110.899 45.2998 110.29 48.3414 106.632C50.7746 104.803 53.2079 100.536 55.0328 97.4873C58.0744 93.2199 60.5077 89.5621 64.7659 87.1235C70.2407 84.0753 72.674 82.856 78.1488 81.6368C82.407 80.4175 89.7068 77.3693 92.1401 74.3211C93.965 72.4922 93.3567 70.6633 93.3567 67.6151C93.965 65.7862 93.965 63.3476 93.965 60.9091Z" fill="white"/>
<circle cx="98.7333" cy="46.1386" r="2.9703" fill="#AF352E"/>
<ellipse cx="108.991" cy="46.1451" rx="2.9703" ry="2.97675" fill="#AF352E"/>
</g>
<defs>
<clipPath id="clip0_2_37">
<rect width="120" height="181.782" fill="white" transform="translate(38 8)"/>
</clipPath>
</defs>
</svg>