<?xml version="1.0" encoding="UTF-8" standalone="no"?>
<!-- Created with Inkscape (http://www.inkscape.org/) -->

<svg
   xmlns:dc="http://purl.org/dc/elements/1.1/"
   xmlns:cc="http://creativecommons.org/ns#"
   xmlns:rdf="http://www.w3.org/1999/02/22-rdf-syntax-ns#"
   xmlns:svg="http://www.w3.org/2000/svg"
   xmlns="http://www.w3.org/2000/svg"
   xmlns:sodipodi="http://sodipodi.sourceforge.net/DTD/sodipodi-0.dtd"
   xmlns:inkscape="http://www.inkscape.org/namespaces/inkscape"
   version="1.1"
   width="447.87881"
   height="864"
   viewBox="0 0 447.87881 863.99999"
   id="svg2"
   xml:space="preserve"
   style="fill-rule:evenodd"
   inkscape:version="0.48.2 r9819"
   sodipodi:docname="AJAX.svg"><sodipodi:namedview
   pagecolor="#ffffff"
   bordercolor="#666666"
   borderopacity="1"
   objecttolerance="10"
   gridtolerance="10"
   guidetolerance="10"
   inkscape:pageopacity="0"
   inkscape:pageshadow="2"
   inkscape:window-width="1280"
   inkscape:window-height="1004"
   id="namedview93"
   showgrid="false"
   inkscape:zoom="0.35355339"
   inkscape:cx="559.45674"
   inkscape:cy="376.75994"
   inkscape:window-x="-8"
   inkscape:window-y="-8"
   inkscape:window-maximized="1"
   inkscape:current-layer="svg2"
   fit-margin-top="0"
   fit-margin-left="0"
   fit-margin-right="0"
   fit-margin-bottom="0" /><defs
   id="defs147" />
<rect
   width="441.254"
   height="180.222"
   x="4.149961"
   y="293.52081"
   id="rect147"
   style="fill:#ffffff" /><polygon
   points="1372.14,416.289 1427.86,416.289 1427.86,479.162 1620.61,479.162 1620.61,534.728 1427.86,534.728 1427.86,597.762 1372.14,597.762 1372.14,534.728 1179.39,534.728 1179.39,479.162 1372.14,479.162 "
   transform="translate(-1176.06,-123.99719)"
   id="polygon160"
   style="fill:#d51810;fill-opacity:1" /><polygon
   points="1424.53,416.289 1431.2,416.289 1431.2,412.955 1427.86,412.955 1431.2,416.289 1427.86,412.955 1372.13,412.955 1372.13,419.62 1427.86,419.62 "
   transform="translate(-1176.06,-123.99719)"
   id="polygon166"
   style="fill:#231f20;fill-rule:nonzero" /><polygon
   points="1375.47,597.757 1368.8,597.757 1368.8,601.088 1372.14,601.088 1368.8,597.757 1372.14,601.088 1427.86,601.088 1427.86,594.424 1372.14,594.424 "
   transform="translate(-1176.06,-123.99719)"
   id="polygon178"
   style="fill:#231f20;fill-rule:nonzero" /><polygon
   points="1182.73,597.757 1176.06,597.757 1176.06,601.088 1179.39,601.088 1176.06,597.757 1179.39,601.088 1620.61,601.088 1620.61,594.424 1179.39,594.424 "
   transform="translate(-1176.06,-123.99719)"
   id="polygon194"
   style="fill:#231f20;fill-rule:nonzero" /><path
   d="M 117.65875,-9.6849616e-7 115.90875,1.906249 l -2.0625,2.6875 -0.8125,0.96875 -0.78125,0.46875 -1.59375,-0.3125 -2.6875,-0.8125 -2.71875,-0.15625 -5.6875,0 -1.78125,0.15625 0,1.125 1.125,1.125 2.0625,3.15625 0.8125,3.03125 0.78125,3.34375 0.46875,3 0.3125,2.0625 -1.25,1.75 -0.96875,1.59375 c -4.2437,7.1409 -4.36215,12.9309 -8.40625,19.375 -2.7473,3.46299 -6.76195,4.60522 -10.78125,7.4375 l -1.4375,0.96875 -0.8125,1.59375 0.5,2.53125 0.78125,2.6875 1.59375,2.5625 1.09375,2.53125 0.34375,1.59375 0.625,1.25 1.75,1.4375 2.21875,1.125 1.90625,1.40625 1.59375,1.59375 0.3125,1.59375 2.21875,0.9375 3.65625,0 4.4375,-0.625 4.28125,-0.625 1.75,0.3125 1.75,0.9375 2.0625,1.4375 0.3125,2.21875 0.96875,3.34375 2.375,3.1875 2.6875,3 c 8.7106,6.38859 1.45,0.6686 7,12.687501 2.7956,5.35511 4.5788,7.31304 6.1875,13.34375 l 2.375,5.25 10.8125,10.96875 1.25,0.78125 2.5625,1.4375 2.21875,1.5625 2.375,1.4375 2.53125,1.75 0.96875,0.78125 0.9375,2.875 0.96875,3.34375 0.625,3.15625 c 2.212,13.963 2.76915,21.58185 2.21875,35.90625 -1.5567,16.70202 -4.35585,11.62032 -15.40625,18.71875 -3.6059,3.66614 -2.19995,4.21521 -6.65625,8.71875 l -1.75,1.4375 -2.375,0.46875 -2.875,3.34375 -2.84375,2.53125 -3.1875,2.375 c -9.3614,7.663 -23.10375,12.3085 -27.28125,24.625 l -0.96875,2.375 L 97.315,251 l -1.09375,1.75 -1.125,1.59375 -2.21875,1.75 -2.375,1.09375 -0.3125,0.5 -1.75,1.59375 -1.125,3.8125 -1.40625,1.09375 c -7.6275,7.9063 -9.62425,14.41968 -3.03125,23.5 4.7834,5.37992 22.38185,5.25251 28.09375,2.53125 5.8937,-1.85433 15.61005,-6.35964 20.96875,-7.125 2.7992,-3.19488 8.91745,-5.35531 13.03125,-5.875 8.4756,-1.46693 20.72245,-1.87692 28.09375,-4.78125 14.1791,-6.74646 29.13125,-4.62308 44.28125,-3.96875 l 5.40625,0 5.25,-0.625 4.90625,-0.46875 4.9375,-1.4375 4.125,1.90625 c 5.7756,3.11456 15.89345,3.79247 22.53125,4.90625 26.0634,0.2752 12.71575,0.0992 33.34375,5.25 l 2.375,0.65625 2.71875,0.46875 2.53125,0.15625 2.84375,0.15625 1.75,0.78125 c 6.75,3.02481 11.20595,3.868 18.59375,3.8125 l 1.09375,2.375 3.1875,2.40625 3.8125,1.875 3.96875,0.8125 3.96875,0.625 2.0625,0.65625 1.90625,0 3.96875,0.625 3.8125,0.15625 4.125,0 3.5,-0.78125 1.75,-0.65625 1.4375,-1.4375 c 7.8637,-9.3567 4.29425,-28.05635 -6.21875,-34.59375 -11.0752,-9.326 -13.49945,-8.9498 -18.71875,-22.875 -9.8161,-14.9788 -11.0878,-2.23925 -10,-25.21875 1.6465,-14.4945 -5.5005,-13.5127 -4.4375,-30.1875 l 0,-11.09375 -3.84375,-4.78125 -2.21875,-5.5625 c -3.3165,-11.4437 1.81845,-22.79665 3.65625,-33.96875 3.9543,-10.6748 1.66205,-13.6609 0.96875,-23.812501 -0.6331,-7.61335 2.56035,-4.6215 2.84375,-15.875 1.8544,-3.90827 2.6386,-9.24404 5.25,-11.90625 2.0126,-3.50792 4.5171,-7.68853 4.125,-11.90625 l 0.9375,0 0.15625,-8.5625 0.5,-0.65625 1.09375,-4.125 0,-2.21875 -0.15625,-2.375 0,-0.8125 -0.46875,-2.6875 c -3.0449,-7.92288 1.7754,-3.93258 -4.625,-13.8125 -4.5473,-5.39766 -6.27155,-3.80394 -11.71875,-10 l -1.59375,-0.46875 -0.65625,-0.3125 -2.21875,-0.15625 -3,-2.25 -1.59375,-0.46875 -1.28125,0 -2.375,0.46875 -2.375,-0.9375 -1.59375,-0.8125 -0.46875,0 -1.28125,0.96875 -4.90625,0.3125 -2.375,0 -1.90625,0.96875 c -4.7516,2.35275 -10.4034,4.39158 -15.5625,6.96875 l -2.5625,1.4375 -2.21875,1.4375 -1.90625,2.0625 -2.53125,1.25 -0.65625,1.4375 -1.09375,2.0625 -2.21875,1.4375 -2.53125,1.09375 -1.59375,1.90625 -0.625,1.4375 0.15625,0.78125 -1.125,2.40625 -2.84375,2.6875 0.3125,0.9375 -0.96875,2.25 -1.25,1.5625 -1.59375,1.90625 -1.28125,2.25 -0.15625,1.25 0.46875,0.65625 c -4.9264,11.66698 2.4593,5.214 -6.1875,15.375 l -10.15625,0.96875 -3.5,-0.46875 -3.96875,-0.96875 -3.5,-0.46875 -3.625,-0.8125 -3.5,-0.9375 -3.65625,-1.125 -3.96875,-1.09375 c -10.2744,-3.32716 -10.75695,-4.77308 -18.71875,-9.21875 l -2.40625,-2.53125 -0.9375,-1.125 -0.625,-0.625 -2.09375,-1.4375 -2.375,-1.25 -1.09375,0.3125 -0.8125,0.78125 -0.78125,-1.75 0,-1.59375 -1.75,-0.46875 -0.3125,-2.21875 -0.15625,-1.28125 -0.46875,-0.3125 -0.34375,-0.15625 -0.78125,-1.4375 -1.59375,-1.40625 -1.09375,-0.8125 -0.96875,-1.5625 -0.625,-0.5 -0.5,-0.3125 -0.46875,-1.75 -2.53125,-0.46875 -0.78125,-0.46875 0,-0.8125 -0.34375,0.34375 -2.375,-2.5625 -0.3125,-1.28125 -0.625,-0.15625 -0.5,0.5 -1.40625,-0.96875 -0.96875,-2.21875 -0.78125,0.96875 -0.15625,-0.34375 -1.75,-1.40625 -0.96875,-2.0625 -0.625,0.15625 -1.28125,-0.96875 -0.46875,-1.90625 -0.9375,0.34375 -1.28125,0.3125 -0.78125,-1.4375 -0.46875,0.3125 -0.5,1.75 -1.125,1.4375 -1.875,-3.1875 -0.96875,0.8125 -0.15625,-0.34375 -0.9375,-0.9375 -0.96875,-1.75 -1.125,1.75 -2.03125,-2.21875 -1.4375,1.90625 -1.28125,-1.75 -0.9375,1.09375 -1.125,-0.46875 -3.15625,-1.75 -2.25,-1.25 C 129.27745,6.971909 122.04415,5.469689 117.65875,-9.6849616e-7 z M 251.47125,138.90625 l 3.5,1.28125 1.90625,2.6875 0.15625,0.34375 c -0.1276,23.4685 43.93385,18.04815 18.90625,56.03125 -6.2185,0.48071 -9.88405,-2.62067 -15.71875,-2.375 -9.5067,-0.68858 -19.13195,0.10281 -28.59375,1.09375 -15.3839,2.86299 -27.92515,-0.58677 -43.65625,3.96875 l -0.46875,-1.75 0.46875,-1.25 2.875,-2.375 1.40625,-3.5 c 2.1248,-5.39764 2.4313,-11.1736 4.125,-17 l 1.28125,-2.84375 1.59375,-3.1875 2.6875,-2.53125 0.8125,-1.75 0.9375,-2.0625 0.15625,-2.0625 0.96875,-4.4375 1.25,-3.8125 2.875,-2.875 2.0625,-0.9375 5.0625,0 2.5625,-0.3125 c 4.3039,0.0591 7.98685,-1.82583 12.21875,-2.71875 4.2142,-1.30039 8.29415,-3.86285 12.84375,-5.21875 l 2.875,-1.125 3.5,-0.9375 1.40625,-0.34375 z m 50.03125,37 2.53125,0.8125 1.90625,1.59375 0.34375,0.625 c 1.1858,4.04882 2.96975,10.0495 4.59375,13.8125 1.6417,6.63071 5.1566,7.88159 3.8125,16.03125 l -1.59375,0.15625 -2.84375,0 -2.71875,-0.9375 -2.84375,-1.59375 -2.5625,-0.96875 -1.59375,-0.46875 -5.6875,-1.28125 c 1.1953,-9.3874 0.23815,-20.00725 6.65625,-27.78125 z"
   id="path206"
   style="fill:#000000;stroke:none"
   inkscape:connector-curvature="0" /><path
   d="m 124.32,16.194813 1.2638,0.79134 0.9519,0.63779 2.3859,2.06221 1.5838,2.85945 1.4315,3.01417 0.9544,3.02008 -0.7914,1.26732 -1.5945,0.63426 -4.2838,-2.69646 -2.8583,-3.02008 -1.4291,-0.15709 0.476,-0.79134 -0.3142,-0.47598 -1.1138,-0.79489 -0.9531,-1.74449 -3.3343,-1.59095 -1.7433,-1.58622 0,-0.95196 c -0.2256,-5.7378 1.1988,-8.4803202 3.1772,-13.4988002 2.0456,4.51536 2.589,5.29016 3.9673,10.4787002 l 2.224,2.54291 z"
   id="path208"
   style="fill:#ffffff"
   inkscape:connector-curvature="0" /><polygon
   points="1281.64,134.953 1284.02,136.858 1285.6,139.078 1282.59,141.145 1280.53,137.649 1279.57,134.472 1279.57,133.52 1280.53,134 "
   transform="translate(-1176.06,-123.99719)"
   id="polygon210"
   style="fill:#ffffff" /><path
   d="m 127.33,11.432813 0.1583,-0.32008 1.5897,0.32008 0.9485,0.95197 0.1618,0.3189 1.1102,0.63307 2.5394,1.11024 3.0153,1.74803 c 6.5752,3.23268 2.6445,7.70315 5.3977,10.7988 l 2.0657,-1.43386 1.4303,0.79606 2.0623,-0.31417 2.2192,-0.32008 0.1619,1.11024 0.9578,0.79606 2.5347,0 1.4291,1.42913 1.748,1.11024 1.5898,0.31417 0.1535,-0.47598 0.476,0.16181 0.7961,0.95197 1.2709,1.42913 1.7433,-0.3189 0.4819,0.47599 0.7901,0.79488 2.3823,0 0.7949,1.9063 1.272,0.1559 1.2673,-0.1559 0.7949,0.95197 0.7914,0.79134 2.3823,1.11496 1.5897,1.90512 0.6343,-0.15827 1.5862,0.79134 0.9567,1.11024 1.7445,2.22402 1.5862,2.38583 1.2709,3.01654 1.4291,2.3811 0,1.42913 1.272,0.79134 0.4713,0 -0.6319,0.7937 -1.2685,0.47244 -3.9768,0.48189 -2.0586,0.31417 0,0.47599 0.7913,0 1.2673,0.4807 3.0237,0.94843 2.0586,0.63779 -2.8535,0.47245 -2.7012,0.47598 -0.3142,0 0,0.63779 0.7866,0.63426 2.5429,0.47598 1.9063,0.48189 -3.0153,1.10551 -2.3823,0.95197 -0.3189,0.79606 0.4807,0 1.2673,0.79016 3.0201,0.47953 1.7445,0.47835 -2.5405,0.47598 -2.2241,0 -0.4807,0.31772 0.4807,1.73976 1.7481,0.32362 0.3141,0.15709 3.9721,0.31535 -0.9555,0.47953 -1.4256,0.79606 -4.1339,0.63425 -2.6917,0.31418 0,1.43386 0.7949,0.31417 1.4244,0.15709 3.0153,0.47598 2.3823,0.32008 c -2.9681,1.26614 -8.5783,0.45 -10.9559,3.01417 l 0.6425,0.47716 11.2654,-0.79488 -2.5381,3.0189 -3.339,1.11024 -0.7866,0.3189 -2.5429,0 -1.591,0.63307 -0.1535,0.16181 0.1535,0.47244 0.9567,0.6378 1.5909,0.95197 1.4245,0.15826 -4.6016,1.27205 -3.4961,1.26733 -0.7913,0.31889 0.3153,0.47599 0.476,0.63307 1.9063,0.63779 1.5898,0 -1.5898,1.10669 -0.796,0.79961 0,0.47598 0.4807,0.94961 1.2626,0.6378 -1.4244,0.63307 -0.6331,1.42913 0.7949,0.79606 -1.591,0.79016 0.3189,0.63779 -2.224,2.858267 -1.5862,0.47717 0.3141,0.63189 0.9579,0.63425 1.428,-0.3189 2.3822,-0.94724 1.2626,-2.225197 1.2721,-2.37756 1.2756,-1.90866 1.272,-0.79252 2.3729,-3.65315 2.2287,-2.7 0,-1.11024 c 3.0118,-4.81417 7.1114,-1.65118 11.4272,-4.2874 l 1.115,0.47598 1.9016,0.63425 2.0669,0.95788 2.3823,1.10551 2.0657,0.63779 0.7961,0.95197 -1.7433,2.22047 -0.4807,2.06693 0,0.47599 0.4807,0.95315 0.4677,1.58622 -0.9484,3.01536 0.4807,3.018897 0.4677,0.47716 0.6331,0.94843 1.1137,2.22402 1.591,0.79606 -0.7949,0.63779 -0.7961,1.26614 -0.7948,2.85827 -1.9004,1.74921 0.9484,1.42795 0.1571,1.11024 -1.1055,1.11024 -3.8162,2.3811 -0.7948,1.9063 0.7948,0.31418 -0.3141,0.79606 -3.0154,2.22402 -1.4291,2.53937 0,0.79488 0.7913,0.47599 0.7949,0.31889 -0.7949,0.47245 -1.1102,0.79488 -2.0634,2.85827 -1.1091,2.53937 1.2626,0.95197 1.115,0 -1.115,2.5441 0,1.90512 0.7949,0.31417 -1.7386,2.85827 -0.4807,2.5441 0,0.47126 0.9484,0.32008 0.7949,-0.47362 -0.3189,1.11024 0,6.66496 -0.9437,3.02008 1.7386,1.27205 -1.4244,2.53347 -0.6331,1.90984 0,0.79606 0.7866,0.15709 1.7481,0 3.496,-1.27087 2.3823,-0.95788 0.6331,-1.90039 -0.3189,-1.5874 0,-0.63425 0.6378,-0.63779 0.4712,-1.74331 0.4807,-3.81024 1.9052,-2.38228 2.0681,-4.9252 2.0622,-3.33425 -0.3225,-0.79134 1.428,-1.74803 0.6378,-1.26969 0,-0.63898 -1.2721,-0.62953 0.9496,-0.47598 0.4808,-0.95315 -1.1056,-2.22402 1.1056,-1.74331 1.1137,-1.27205 0.3142,-1.2685 -0.3142,-0.16063 1.7433,-2.53937 0.7961,-2.22402 -0.3189,-0.47717 0.3189,-2.7 0.7902,-2.38228 0.3236,-0.47598 2.0586,-0.63307 1.5874,-0.3189 0.1607,-0.47717 -0.1607,-1.42441 0.1607,-1.90512 3.6531,-2.22402 1.5862,-2.38228 1.2721,0.63426 1.4291,0 0.1583,-0.15827 0.6378,-1.74331 0.7901,-1.74803 0.4725,1.26732 0.6378,1.43386 2.0669,-1.74921 1.9063,-1.11378 0.476,0 -1.2768,4.12914 0,2.85827 0.3189,0.63425 2.0681,-0.47598 0.6296,-1.58622 0.3259,-0.16181 1.7445,-1.10669 1.4292,-0.47953 0.6342,-0.15827 3.3331,-4.2874 3.3342,-0.16063 2.3823,-0.47126 0.7914,-0.47717 -0.7914,2.85709 0,2.53937 0.4807,0.47599 1.9004,-0.95197 1.115,-1.58622 0.4724,-0.16181 0,0.79606 -0.4724,1.58622 0,2.85709 0.4724,2.5441 0.4725,0 1.4326,0.15709 2.6965,0 1.7445,-1.90512 -0.3118,1.74803 0.4724,1.27205 2.3858,-1.11496 0,1.11496 0.6331,0.79016 1.4256,-0.79016 1.9063,-2.38583 1.2697,-2.53937 1.1197,-2.38228 1.7362,-3.17717 1.1173,-0.79488 -1.1173,-1.42559 -1.7362,0 -1.1197,0.47716 0.163,-1.270867 0.476,-1.74921 1.9051,-3.80669 1.5909,-2.7 0.6296,0.3189 4.1291,-2.38583 0.1583,0.79606 0.476,0.47953 1.748,-1.27559 1.2709,-1.26732 0.1535,-0.3189 0.6425,1.11378 1.2673,0 2.0623,-2.3811 0,2.06221 0.9543,1.27087 2.6953,-1.27087 1.4291,-0.3189 0.4807,0.6378 2.6917,-1.11378 2.237,-0.63425 0.6213,0.63425 0.1571,1.11378 -0.4713,2.05866 -1.4291,2.2252 -1.115,1.74803 -0.6295,1.90866 0.3154,1.10551 3.4925,-1.10551 2.8535,0.47244 0.8079,0.63307 -0.1618,1.59095 -0.1618,1.906297 -2.8583,2.37992 -1.1138,2.53937 0.4713,0.6378 -0.4713,1.10669 -0.4677,1.58976 0,4.2874 0.7819,2.70118 1.9098,0.95197 1.7481,-0.16182 0.1618,-0.47126 0.1618,0.79134 0.6248,0.79489 1.9051,-0.16063 1.7563,0.31417 -0.1665,3.3378 0.4819,2.70118 0,0.79016 0.6295,0.47716 c 2.5642,-1.80236 6.7748,-6.93307 9.365,-8.57481 l -0.9485,-2.54291 1.1091,-3.32953 -1.1091,-1.11024 -1.4291,0 0.6284,-0.63779 0.8007,-1.74803 0,-1.58622 0.7867,-3.64961 0.8043,-0.79607 0,-0.79015 0.7866,-2.701177 0.3189,-1.90394 0.6425,-2.06339 0.1559,-1.90984 -0.1559,-1.42913 1.7433,-1.90512 0.7949,-1.90158 0.476,-2.22402 0.3154,-2.22047 0,-4.9252 -0.7914,-4.60158 -0.3224,-4.13386 -2.0599,-3.32953 -1.9039,-2.22402 -0.1618,-0.47599 -2.8583,0.15591 -2.7012,0.79606 -0.4712,-0.15827 1.2708,-2.3811 1.102,-1.27205 0.1583,-0.79016 -3.9603,1.58622 -3.3307,1.90512 -0.9567,0 2.7,-3.17717 1.7445,-2.69646 0.3154,-0.47598 -1.4303,0 -0.9556,1.11024 -2.0598,1.58622 -2.224,1.74803 -2.2276,1.58976 -2.0516,1.26732 -1.4362,0.47717 3.3296,-7.14095 -0.7878,0.79133 -1.1055,0.95315 -2.8654,3.02008 -1.8969,2.05748 -2.3905,1.58622 -1.748,1.27205 -0.6248,0 0.9437,-2.85827 0.3224,-2.05748 -0.6413,-0.16299 -0.7914,0.79488 -0.9531,1.26732 -2.5418,2.70236 -2.374,1.74331 1.2673,-3.49134 1.1067,-2.85354 0,-0.79606 c -4.3901,2.74724 -4.598,6.64725 -8.7236,9.2067 l 1.5862,-3.49488 1.5945,-2.85827 0.1488,-0.79606 -0.4759,-0.31417 c -6.2894,5.12953 -2.6374,5.55827 -9.8469,12.2232 l -1.4315,1.11378 -1.7445,0.79606 -0.7913,0.79016 -0.952,2.2252 -1.4291,2.06221 -1.115,1.74803 -1.7433,1.58622 -0.952,0.47716 -0.9543,-1.42913 -1.109,-0.95197 -0.7914,1.42795 -1.1138,0.47599 0.3189,-4.28622 0.952,-3.96851 0.3201,-0.47717 -1.1185,-0.95197 -0.1536,0.47599 1.5863,-4.44331 0.3153,-3.17717 -0.3153,-0.95315 0.157,-1.26732 0.7996,-2.5441 1.1067,-2.3811 1.9052,-2.22402 1.1102,-2.22047 0.4843,-1.10906 0.9484,-3.49252 1.2626,-3.33898 -0.1536,-0.63426 -2.224,0.47717 0.4772,-0.95315 1.7468,-1.58622 1.9063,-1.90512 1.2638,-1.74803 0.8032,-2.06221 -0.1654,-0.79606 -2.5358,1.43386 2.0598,-3.49606 2.8571,-2.3811 0.8008,-0.47717 -1.7492,-0.3189 c 2.1272,-3.88701 4.1079,-1.73504 6.8268,-5.55354 l 0,-1.27205 2.0622,-2.2252 2.2287,-2.06221 2.5347,-1.74803 2.6964,-1.90158 2.3906,-0.7937 c 3.7299,-1.97008 9.9732,-2.84173 14.1284,-4.60748 l 0.7866,-0.79488 1.5897,-0.47126 3.9697,0.15591 2.3859,-0.95197 3.4913,1.58622 2.0587,-0.3189 0.1618,-0.94843 0.9555,0.15709 1.7445,0.79134 3.0153,2.7 2.8583,-0.47598 0.4677,0.79606 1.591,1.11024 1.1137,0.95197 2.8666,2.38228 0.4677,0.79488 1.5815,-0.47716 c 3.5055,3.02008 3.5575,4.56851 5.726,8.73307 l -1.2721,0.31417 c 1.9016,4.15039 4.9217,13.1114 3.6497,17.3043 l -0.6343,-1.2626 -1.1138,-1.27087 0,3.80551 0.6425,3.33898 -0.32,0.79016 -1.9134,0 0.3319,0.47834 0.4712,1.42795 0.1583,2.06693 0,2.22047 -1.4291,2.85827 -0.3154,2.85709 -0.4795,0.95197 0,0.47835 -1.2638,0 0,0.7937 -0.3236,1.73976 -1.1103,3.33898 -1.2673,1.42913 -0.3142,1.90512 -0.8043,2.06221 -1.4244,-1.42795 c -0.9992,4.17638 -0.2846,6.35315 -3.0236,11.113 -2.2748,3.11221 -5.3126,6.39213 -7.6169,9.36496 l 2.2275,-0.47126 2.0587,-0.47835 0.4724,0 c 3.5091,11.249997 1.4587,23.273597 -1.259,34.450397 l -1.2721,4.76457 -1.1138,4.60984 -0.7913,4.91929 -0.3225,0.63426 -1.4291,1.90512 -1.4291,1.43032 -0.6295,1.42441 -0.476,2.85709 1.1055,-0.31418 0.7984,-0.95315 0.6307,1.5874 0.9567,1.11024 1.2709,2.85709 1.9016,2.69646 2.0586,2.54291 2.3906,2.5441 0.4677,1.74331 c 0.4559,8.13662 -4.2792,17.752 0.1571,25.089 l 1.2708,-1.27205 0,-0.16181 c 3.0922,7.81772 6.606,12.3886 2.0717,20.9634 -2.1685,10.9217 2.8547,8.30551 -10.3181,12.385 l -0.476,-3.02008 0.7913,-2.86299 0,-0.63189 -2.8582,2.7 -1.1138,2.85709 -0.1571,0.95788 -2.2205,0 -1.748,-1.43386 0.952,-3.17717 1.9063,-2.21929 0.6378,-0.47717 -4.1374,1.42441 -2.2122,2.70591 -0.3189,0.94843 0,0.79488 -0.9567,0.31417 -0.9532,-1.58504 0.6378,-2.06221 1.2721,-1.74803 2.0586,-1.43032 2.0658,-1.42913 2.0681,-0.94842 c 8.0374,-2.48386 8.2453,-6.31063 4.2862,-13.337 -11.2441,-32.8795 -3.2705,-16.7008 -27.9508,-40.9642 l -3.3342,-3.96969 -3.0154,-3.49134 -3.3307,-3.97205 -2.8571,-3.81024 -2.863,-3.64961 -1.9016,-1.27205 -4.1291,-1.58504 c -9.7689,-2.28898 -15.7913,-4.06654 -24.7701,0.7937 -5.6221,2.82047 -14.8595,7.49055 -21.2728,7.14567 l -3.9685,0.62952 -3.176,0 -1.1103,-0.62952 -0.6342,-1.27205 0,-2.22402 2.5429,-4.60158 0.6295,-3.64961 c -4.6228,10.4032 -6.1204,8.25945 -11.9079,16.8307 l -1.1055,2.05748 -0.6378,1.9063 0,1.90512 -0.6342,3.33425 -0.4772,3.33425 -1.4279,2.85709 -2.2205,2.38583 -1.2721,0.9496 -1.1137,2.38228 -0.7914,1.90748 -0.6378,2.05984 c -0.5279,3.73347 -1.637,7.37481 -2.0669,11.113 -1.2756,8.19567 -3.8953,5.41417 -6.0307,10.7941 l -1.9063,8.73662 -1.748,1.90394 -1.5815,1.11378 -1.2721,1.74449 -1.9051,1.42913 c -2.4626,2.02441 -7.1457,6.61418 -8.8937,9.20788 l -1.4244,-0.94842 -1.4327,-1.91457 -0.6343,-1.73858 -1.272,3.65315 -1.9039,0.94842 -1.1103,-0.31417 -0.9531,-3.01654 -0.4725,-2.38583 -0.3177,-0.47598 -1.4339,3.01536 -0.9484,2.86299 -0.6378,0.31417 -2.0681,-1.11024 0.7961,-3.96851 1.5897,-2.54291 0.4772,-0.47244 0.7913,-0.16181 1.1185,-0.95197 1.9004,-0.47599 0.9532,0 2.5429,-0.63425 c 10.4835,-5.62677 7.1409,-15.1748 10.7953,-25.8791 7.9276,-40.4539 4.2531,-28.3417 -4.4492,-64.1445 l -0.9484,0.16181 -0.6378,0.95315 2.3811,18.1004 -2.7012,-1.74803 -1.4244,-1.59095 -1.1138,0 -1.7433,-2.85827 -1.1138,-2.53819 -0.3165,-0.47244 -0.9555,0.47244 -0.3154,1.58622 c -3.7429,-4.75866 -0.2634,-7.22599 -2.5429,-12.7004 l 1.1138,-1.42795 -0.1618,-1.58622 0,-0.32008 -0.1571,-2.22402 1.1138,0 0.9496,-0.63307 -0.3154,-3.17244 1.2709,-2.2252 0.9484,0 0,-1.11378 0.6343,-0.62952 1.272,-1.11496 0,-1.42795 -0.1571,-2.2252 -1.2673,-4.444487 -0.4819,-2.7 -1.4279,3.0189 -0.476,3.015357 -0.3154,0.47598 -0.6342,-1.10906 -0.9567,-0.953147 -0.952,2.062207 -0.9496,1.74803 -0.3177,0.47716 -0.3154,-1.90984 -1.1149,-0.79133 -1.2709,3.49134 -0.7913,3.01654 -0.3237,0.79488 -1.4197,-1.10906 -0.796,3.01536 -1.1138,2.06575 -0.7961,0 -0.3177,4.13032 0.3177,3.4878 -0.3177,0.79488 -1.4256,-1.26732 -0.9519,-2.5441 0,-3.17599 0.4759,-3.49134 0.3142,-3.01536 -0.3142,-1.5874 1.4256,-3.33425 0.476,-1.90512 0.4796,-0.3189 0.9484,-3.967317 0.7996,-2.70236 -0.7996,-0.7937 -3.8055,0.7937 -2.3859,1.5874 -1.1102,-0.15709 0.3189,0.47599 -0.3189,1.58622 -0.7961,3.177167 -0.7854,2.22402 -1.272,0.63425 -0.9532,1.11378 -1.115,-1.74803 -1.109,-0.79606 -1.7445,2.5441 -0.952,1.90158 -0.1618,0.31771 c -3.1264,-5.67284 -2.8146,-12.192497 0,-17.938597 l 0.6378,-1.42913 0.476,-2.22402 1.4303,-2.7 0.6331,-2.22047 0.6283,-0.31535 c 2.9351,-5.46024 10.5732,-19.6949 8.5796,-25.2496 l -0.1583,1.11378 -0.7949,2.06339 -0.4772,2.06221 -0.4759,2.06693 -1.2709,2.06221 -0.3189,0.95433 -0.7961,0.31772 -1.2626,1.74449 -0.1618,1.90512 -1.5862,3.02008 -0.7949,0.63307 -1.1102,1.74803 -1.2756,1.26732 -0.4677,0.16181 -1.9063,2.21929 -1.7516,1.43032 0,0.79488 -1.7445,2.22047 -1.9087,1.27205 -0.4724,0 -1.2721,2.06221 -1.4255,0.79488 -0.476,0 -0.9567,0.47599 -1.2673,-4.12559 0.4724,-3.33307 0.4795,-0.79606 0.3154,-2.22402 0.639,-2.22047 -0.4819,-0.3189 2.0634,-1.42913 1.272,-1.26732 0.4795,0 0.6307,-2.38583 -0.4724,-1.74331 -0.1583,-0.47599 0.9532,0.47599 1.109,0.63307 -1.4315,-2.85709 -2.0598,-1.59213 -0.6425,-0.15591 -2.2158,-0.15827 -0.6378,0.63426 0.1583,0.79488 -1.2638,2.2252 -0.3224,2.21929 0,0.31417 -1.4291,-0.31417 0,0.63779 -0.6343,0.79016 -1.748,0.63425 -0.4725,1.59095 -2.5429,0.79489 -1.2661,0.95315 -0.9543,-0.3189 -4.9241,-0.95197 -4.4445,0 -1.2685,0.31772 -3.8137,0.79133 -2.7012,-0.15708 -0.7902,-0.31418 -0.796,-1.90984 1.9051,-1.2685 2.0669,-0.47952 1.7433,-0.47244 3.8162,-0.6378 4.2826,-0.95315 3.6532,-0.47244 2.3776,-0.47953 0.4807,-0.47244 c -7.6819,-2.9563 -14.8051,2.81929 -22.3925,2.69173 l -3.9638,-2.21929 -1.591,-2.06221 -0.7913,-1.74803 0,-2.06339 1.9051,-2.22047 0.4772,-2.54291 0,-0.63425 -2.8583,-1.58976 1.5874,-2.05866 2.3799,-0.6378 0.3154,-0.63425 1.2768,-0.79488 3.0106,-1.9063 2.5464,-2.69528 1.7445,-2.70118 0.6296,-3.17717 0,-2.22402 0.796,-0.95315 2.3811,-2.37756 2.0705,-2.22402 2.5358,-1.58976 2.5429,-0.94843 1.5827,-0.47716 0.1618,0.79134 1.1103,1.11024 2.8618,2.06693 1.1102,2.3811 1.5851,0.63307 1.5921,1.11024 1.1055,0.79606 2.5382,2.70118 2.2299,2.85827 1.5815,3.33307 0.6378,1.58622 1.1138,0.95315 0.6307,0 1.4315,0.15709 3.3319,0.48189 2.0657,0.31417 0.4819,-0.79606 -0.3201,-0.79016 -0.9519,-1.11378 -1.1138,-1.11024 -1.7492,0.31772 -1.7445,-0.31772 3.3319,-2.2252 2.5476,-1.11024 1.1103,0 1.4232,-1.90512 0.6342,-1.26732 -0.6342,-0.63779 1.115,-0.63307 0.7913,-1.11496 -1.2721,-1.74331 0,-3.17717 -0.6342,-2.06221 0.6342,-0.32008 -1.7433,-0.79016 -0.9567,-1.27205 -1.5838,-3.17717 -1.2697,-2.69646 -1.5874,-2.85709 c -2.811,-3.88347 -5.6351,-5.3941 -7.7835,-9.5279602 l 0.7996,0.15827 3.0154,1.7480302 z"
   id="path212"
   style="fill:#ffffff"
   inkscape:connector-curvature="0" /><polygon
   points="1280.37,167.026 1280.37,164.167 1278.62,161.785 1277.83,161.466 1277.83,160.99 1278.62,161.466 1279.89,162.258 1283.07,164.009 1284.97,164.643 1283.07,165.754 1280.84,167.026 "
   transform="translate(-1176.06,-123.99719)"
   id="polygon214"
   style="fill:#000000;stroke:none" /><polygon
   points="1286.24,171.465 1289.58,171.945 1291.48,173.055 1293.86,173.847 1295.61,175.123 1296.08,175.28 1294.97,175.599 1293.71,175.599 1291.48,174.169 1289.9,173.532 1289.26,173.532 1287.51,172.421 1285.77,171.945 1283.55,171.945 1283.86,170.517 1284.49,170.993 "
   transform="translate(-1176.06,-123.99719)"
   id="polygon216"
   style="fill:#000000;stroke:none" /><polygon
   points="1308.79,176.708 1311.96,176.394 1310.54,175.441 1308.47,175.28 1307.36,175.123 1306.72,174.646 1306.56,174.331 1304.98,173.537 1303.07,174.331 1304.98,176.394 1305.46,176.394 "
   transform="translate(-1176.06,-123.99719)"
   id="polygon218"
   style="fill:#000000;fill-rule:nonzero;stroke:none" /><polygon
   points="1309.42,179.086 1306.09,177.347 1304.98,176.705 1304.02,176.391 1303.39,176.867 1303.55,178.929 1304.34,178.929 1307.35,179.405 1311.01,180.201 "
   transform="translate(-1176.06,-123.99719)"
   id="polygon220"
   style="fill:#000000;fill-rule:nonzero;stroke:none" /><path
   d="m 134.79,61.761813 -2.0657,-1.42913 -2.0599,0 -0.1606,0.31535 0.7949,1.27677 0.796,1.10551 0,0.15591 -1.9063,-0.94724 -1.5897,0 1.9051,2.37756 -3.1736,-1.43032 -2.8571,-1.26142 -0.476,-0.163 0,-0.79488 1.9039,-0.15827 0.3154,-1.42795 0.796,-0.63779 -0.796,-1.11024 0,-1.42913 c 4.0618,1.21181 5.0693,1.17756 8.2594,4.60512 l 0.3142,0.95315 z"
   id="path222"
   style="fill:#000000;stroke:none"
   inkscape:connector-curvature="0" /><polygon
   points="1338,198.772 1338.95,196.873 1336.73,199.73 1337.21,199.73 "
   transform="translate(-1176.06,-123.99719)"
   id="polygon224"
   style="fill:#000000;fill-rule:nonzero;stroke:none" /><polygon
   points="1339.27,202.274 1337.68,204.494 1335.94,205.923 1334.98,205.923 1337.52,203.226 1339.27,201.002 1339.43,200.365 1339.43,201.16 "
   transform="translate(-1176.06,-123.99719)"
   id="polygon226"
   style="fill:#000000;stroke:none" /><path
   d="m 151.62,92.877813 -0.7961,-1.43032 3.0166,-1.58504 2.3811,-2.38228 -0.3154,-0.32008 0.7914,-0.79016 0.1582,-0.95787 2.2193,-0.62953 c -2.2157,2.46378 -3.8527,5.40236 -6.3449,7.61811 l -1.1102,0.47717 z"
   id="path228"
   style="fill:#000000;stroke:none"
   inkscape:connector-curvature="0" /><polygon
   points="1422.15,232.436 1420.88,234.503 1422.31,235.295 1423.58,234.184 1423.58,233.55 "
   transform="translate(-1176.06,-123.99719)"
   id="polygon230"
   style="fill:#000000;fill-rule:nonzero;stroke:none" /><path
   d="m 267.04,110.50281 c -0.7902,3.01417 -2.2795,6.25512 -3.176,9.52205 l -0.9449,0.16181 -0.9614,-0.79606 1.4291,-5.07756 1.9099,-4.13032 0.476,-0.79488 0.9484,0.16181 0.3189,0.95315 z"
   id="path232"
   style="fill:#000000;stroke:none"
   inkscape:connector-curvature="0" /><polygon
   points="1444.05,239.744 1443.1,239.265 1441.36,244.187 1442.15,246.408 1444.38,247.202 1444.38,246.569 1443.59,244.817 1444.38,241.491 "
   transform="translate(-1176.06,-123.99719)"
   id="polygon234"
   style="fill:#000000;fill-rule:nonzero;stroke:none" /><path
   d="m 314.36,119.07581 0,0.63307 -0.3154,1.27205 -1.4279,2.54291 0.3106,2.22047 -0.7866,0.79488 -0.1618,1.26732 0.6378,0.63898 0.4724,1.27087 -0.4724,2.22047 0.6295,1.58622 -0.3189,0.63307 -0.3106,2.06811 c 1.7315,8.0811 -0.6721,5.18032 -4.2957,10.9512 l 0.1583,-5.23583 -0.9461,-3.02008 -1.1137,-0.63307 -0.1524,-4.13032 -1.591,-2.53819 -1.1149,0 0,-1.74331 -0.3095,-2.2252 0.7866,-1.11024 2.2288,-2.06221 2.0539,-2.5441 1.9099,-1.90512 2.6964,-0.95197 1.4327,0 z"
   id="path236"
   style="fill:#000000;stroke:none"
   inkscape:connector-curvature="0" /><path
   d="m 260.69,140.66381 0.3248,0.63779 0.1559,1.90512 1.1138,3.33425 0.9496,2.06811 1.1102,-0.32362 0.1618,-1.11024 0,-1.9063 0.3178,0.63426 0.4771,1.27204 0.7949,2.54291 1.4303,1.58268 0.1559,-2.53582 -0.1559,-2.07047 0,-0.47126 0.4677,0.31771 0.802,0.63425 0.6295,1.90512 0.7926,1.42913 0.3224,1.90512 0.6331,0.95197 0.1535,0 0,-5.55827 0.3236,-0.47598 0.4808,0.95315 1.1055,1.27559 1.2685,3.32953 0.9555,2.22047 0.6307,-0.47244 0.3224,-1.27205 0.4807,0.47716 0.3107,1.26732 1.2756,2.86299 0.9484,1.90039 0.4795,-1.74449 0,-1.42795 0.7843,0.47599 0.6378,1.27205 0.4795,3.49134 1.898,0.16181 1.4327,1.74449 1.4327,0.1559 0.3153,0 0,0.6378 0.4807,1.27205 0.1607,2.53583 0.9448,1.58976 0.8044,-0.47598 0.7819,-0.95315 0,0.47716 2.237,3.65197 -0.8067,2.69764 -0.7878,2.7 -0.6425,2.70118 -0.3142,3.01417 -0.3154,2.69764 -0.1523,2.7 -0.1618,3.01536 -0.3189,3.02008 0,2.7 -0.3237,3.01536 0.9567,1.11024 1.5863,-1.58976 0.1582,-2.69646 0.3154,-3.17717 0.646,-2.7 0.1607,-2.85354 0.6212,-2.70591 0.7996,-2.85354 0.7902,-3.01536 0.7961,-2.38228 1.5956,-2.5441 1.5815,-2.21929 0.9485,-0.3189 1.1137,0.3189 c -6.626,6.36732 -5.6043,18.4547 -7.9393,27.1476 -0.8599,6.44292 -1.3748,0.73228 -7.1457,8.57717 l -1.4291,2.06339 -1.2662,1.42441 -1.4338,0.95315 -1.5827,0.79488 -3.8103,-1.11024 -0.1629,-2.38583 -0.463,-2.05748 -2.237,3.64488 -2.3776,0.79843 -0.7949,-0.79843 -0.4772,-2.69764 -0.3177,-2.06221 -1.4256,2.70118 -1.4244,1.90039 -0.4807,0.15827 c -0.633,-9.22559 5.3599,-7.29921 10.9524,-8.40827 l 0.9555,-0.79606 1.1103,-3.02008 1.898,-2.69528 1.1173,-2.85827 1.4339,-2.85827 0.7866,-3.01063 1.1102,-2.86299 0.6414,-3.32953 c 2.7012,-9.18189 -4.1504,-17.6244 -11.5925,-22.0736 -11.0374,-8.08937 -14.3327,-7.92284 -15.085,-23.3362 l 0.6378,0.15827 0.9472,3.32953 z"
   id="path238"
   style="fill:#ffffff"
   inkscape:connector-curvature="0" /><path
   d="m 165.91,143.52581 c 7.4693,20.4142 6.7536,28.0831 2.0681,49.5354 -1.6453,5.23937 -0.3531,11.0906 -5.5594,14.6043 l -1.7481,1.11496 -2.0622,0.31772 -2.3811,0.31535 -1.1102,-0.31535 -2.3823,1.74449 -1.9051,1.58268 0,0.64252 0,-1.74803 -1.5862,-0.79607 -1.1138,1.90158 -1.4256,0.96024 -0.476,0 0.476,-4.44803 1.9016,-3.17244 1.1138,-0.3189 1.5862,-0.15827 c 4.6653,-0.77716 10.3606,-4.26024 12.2232,-8.73544 4.1374,-17.935 -0.2587,-39.0047 -1.5862,-57.313 l 0.9519,0.15709 0.4819,0.79488 1.2626,1.74803 1.2709,1.58622 z"
   id="path242"
   style="fill:#ffffff"
   inkscape:connector-curvature="0" /><polygon
   points="1370.7,286.892 1371.34,286.415 1372.77,287.368 1372.46,289.27 1372.46,289.432 1369.76,291.341 1367.53,291.021 1366.9,291.021 1368.64,288.321 "
   transform="translate(-1176.06,-123.99719)"
   id="polygon244"
   style="fill:#000000;stroke:none" /><path
   d="m 286.89,199.09581 c -0.7701,2.55591 -3.7216,9.19607 -6.9803,9.04725 l 0,-1.43032 1.2638,-0.94724 0.6378,-0.79607 1.5862,-2.06221 1.1161,-1.9063 1.2697,-2.06575 0.6343,-2.06339 0.157,-1.11378 0.3154,1.58622 0,1.59095 0,0.16063 z"
   id="path248"
   style="fill:#000000;stroke:none"
   inkscape:connector-curvature="0" /><path
   d="m 267.53,202.74581 -1.1197,0.62953 -1.2685,2.06693 -1.2697,2.22402 -0.4819,2.38228 0,2.53819 0.4819,1.26732 c 4.8555,2.90906 6.502,0.13228 13.1752,2.54764 11.785,0.0555 6.4725,-7.61221 14.4484,-8.73544 5.9185,1.22953 11.8524,2.70118 17.3091,5.39764 l -3.8102,1.59095 -2.3859,2.53937 -0.4724,0.95551 -0.6342,2.37756 0,1.74803 0.3189,0.47598 0.3153,0.63426 3.8102,0.79606 0.476,0.94724 1.1103,0.163 6.5149,0 2.6977,0.94724 c 6.013,-0.3874 9.5988,-5.40118 14.4425,0.79606 4.585,4.54252 4.6783,5.00197 7.4681,10.7976 l 1.4338,2.06339 1.1056,1.90512 1.1055,1.58622 1.272,1.9063 -0.3142,1.10906 -0.796,0.9567 -1.9087,-0.31418 -4.4445,-1.11969 -3.9685,-1.10551 -3.6484,-1.43268 -4.1303,-0.15708 -1.9016,0.15708 -2.5429,-1.27205 -2.5382,-1.42441 -2.5441,-1.26732 -2.6965,-0.95669 c -3.7169,-1.13976 -9.8622,-1.34055 -13.8095,-1.42441 l -3.0248,0.31417 -2.061,-0.95197 -4.1256,-1.43032 -4.7646,-0.7937 -4.6015,-0.47834 c -8.4886,0.53149 -7.0607,-0.28819 -15.4039,-3.32953 -4.8071,-1.52598 -11.0161,-1.24488 -16.0347,-1.90512 -10.3087,0.7748 -7.7788,-1.94291 -17.4673,-1.43268 -5.7024,0.25866 -11.3091,1.20236 -16.9854,1.74803 -13.4835,-2.85 -19.4634,2.44488 -31.5921,3.65315 -8.8926,0.24212 -4.7552,-2.37284 -14.928,1.26614 -7.4516,2.92795 -6.163,2.95276 -13.6571,2.70236 -3.4489,0.0461 -9.9945,1.20827 -13.1717,2.53819 -8.804,2.72126 -2.8878,3.35551 -11.4319,3.49725 l -2.5441,0.79015 -2.5335,1.11378 -2.5441,0.94961 -0.9567,0.47953 -1.7433,-0.3189 c -4.9252,-0.58701 -10.5484,1.51772 -14.4484,4.2874 2.7815,-12.385 10.539,-14.6516 19.0535,-20.8028 4.9902,-3.46536 8.7012,-7.08425 13.9713,-9.84095 6.065,-5.11654 7.0228,-0.67087 13.4953,-2.21929 l 0,3.81024 1.5862,2.53465 0.6331,0.16181 1.4338,0 2.0623,0.3189 4.4456,1.42441 2.8618,-1.42441 2.3776,0.79134 1.4279,0.47598 c 6.1678,-2.3941 4.93,-7.30984 12.3815,-13.337 3.3945,-3.84095 12.9839,-6.64725 18.1051,-6.66496 11.9717,-0.82086 23.413,0.004 35.2453,-2.85827 14.5063,-2.03268 18.1347,-2.59724 32.3906,0 l 1.7493,0.63425 z"
   id="path250"
   style="fill:#cdcdcd"
   inkscape:connector-curvature="0" /><path
   d="m 251.17,240.37181 c 3.3047,4.3937 12.3295,5.89843 17.2984,4.44803 l -0.7831,-1.43268 c -8.2724,2.06693 -14.7331,-4.10433 -19.8532,-9.68032 22.6606,-4.07008 29.9882,15.0555 33.8232,33.3402 -8.0031,2.24528 -12.4524,-7.07717 -17.7886,-9.20788 -7.8697,-3.67913 -18.841,-3.34252 -24.9236,-6.51142 l 0.1571,0.47717 0.8008,1.27087 2.2158,0.63779 1.748,0.62953 2.6953,1.27205 3.3378,0.79134 3.0165,0.95197 c 6.9791,1.5815 14.1921,4.40197 18.411,10.4787 -13.8142,-2.08347 -25.0831,-0.17363 -36.0272,-10.6406 -5.4012,-5.69055 -4.376,-5.73662 -7.6264,-11.7425 -2.3043,-6.12402 -5.6846,-6.4937 -7.4669,-12.0661 7.2472,-2.59016 19.5803,-3.60591 25.5638,2.22047 l 5.4012,4.76339 z"
   id="path252"
   style="fill:#d51810"
   inkscape:connector-curvature="0" /><path
   d="m 218.93,236.56081 c 2.765,3.66614 4.0902,8.1874 6.1973,12.2291 l 1.4279,2.53819 0,0.95315 -0.3142,1.27205 -1.1138,2.06221 -1.4303,0.95551 c -13.9665,1.18346 -24.6756,-12.9839 -37.7835,-13.1835 l -0.3189,1.27205 c 7.9571,1.20236 18.1724,9.55985 25.7173,12.6992 l 3.8244,1.11378 3.7937,0.95315 3.8197,0.3189 2.3776,-0.79606 2.0622,-1.10906 0.4795,-0.48071 0.6296,-1.74331 0,-2.06221 5.5594,8.09764 c -15.8941,7.15276 -31.7114,-3.93543 -45.724,-10.3228 l -4.2827,-2.38228 -2.8582,0.79606 -1.2721,1.27205 0,2.7 1.2721,2.69291 2.0622,1.27087 0.9531,-0.3189 0.6378,-0.78779 -2.2287,-2.38937 -1.1103,-1.90039 0,-0.95315 1.1103,-0.31417 2.0669,0 3.3295,2.37756 3.0248,1.90983 0.9473,1.10551 c 3.7098,2.63622 5.837,1.45394 10.6417,5.72008 l -2.3859,0.16182 -2.224,0 -3.1736,-3.81614 -3.176,-1.11378 -0.9484,-0.16182 -0.3189,0.95788 0.6378,0.16063 1.4256,0.63307 1.9039,1.43032 0.476,1.90984 -0.952,0.47598 -1.9063,0.78544 -2.7,-0.15591 -1.7433,-0.62953 c -5.6008,-1.14095 -4.5685,-0.55393 -9.5267,-3.97205 l -2.067,-1.43386 -1.4291,-1.5815 -1.4244,-1.74803 -1.4339,-1.74803 c -2.6917,-3.16063 -3.7216,-7.0689 -3.8114,-11.113 l -2.3811,0.47599 -1.4244,-0.6378 -0.4725,-0.31535 0.4725,-1.26732 1.4244,-1.5874 2.7047,-0.47953 3.0166,-0.31417 c 5.5795,-2.43307 8.1874,-2.2937 14.4425,-1.43386 l 3.3378,0.95197 3.9649,1.27559 3.6579,1.2685 3.176,1.58622 3.8079,1.42913 3.4913,1.58976 3.4961,1.26378 1.748,-0.15355 0.6331,-0.79015 -0.6331,-1.58977 -2.2299,-2.54055 -2.8535,-1.74684 -2.8583,-1.59213 -3.3331,-1.42796 -1.5862,-0.79133 -0.7961,0.31889 -0.796,-0.47952 -0.7902,1.26969 0.9484,0.47834 1.4339,1.11378 3.4961,1.11024 2.2145,1.74685 -5.2346,-2.22402 -4.4492,-2.06693 -1.4292,-0.15827 -0.7913,-0.79015 c 7.1622,-3.52559 15.4642,-4.10079 23.0185,-1.27205 l 2.8535,3.17244 z"
   id="path254"
   style="fill:#fedc00"
   inkscape:connector-curvature="0" /><path
   d="m 295.15,242.11481 c 4.8224,4.63228 8.3091,13.9677 15.7146,14.7673 l 2.3823,-0.31535 1.4279,-1.90512 -0.3141,-1.58622 -0.3201,-0.32363 -0.952,-0.94724 c -2.25,-0.66024 -7.4303,-3.81614 -9.3697,-5.24528 0.8008,5.38937 5.1425,3.39921 8.2559,7.46457 l -1.9016,0.15709 -2.0669,-0.63426 -1.2709,-0.79488 -2.0633,-1.74331 -1.7445,-2.06339 -1.904,-2.38583 -1.5921,-1.90039 -0.952,-1.27205 0.952,-1.58622 1.115,-0.63779 0.157,-0.15709 4.6016,0 c 5.9126,0.59882 12.5551,3.29055 15.0862,9.05433 2.9894,5.24882 3.4453,8.97756 3.9685,14.9197 l -1.1055,2.3811 -1.5956,1.43032 -0.6343,0.16063 -3.8055,-0.95669 -2.3858,-1.74331 -0.4725,-0.47717 0,1.58622 1.2673,1.59095 0.476,0.62953 0.7949,0.6378 2.5394,1.42913 1.748,0.15708 2.8535,-1.11024 1.2721,0.32008 0,0.63307 -1.2721,2.06221 -1.4244,0.95315 -0.4795,0.3189 c -2.8122,0.82087 -7.1161,-2.28307 -8.2512,-4.76339 l -0.9578,0.79606 0.1618,0.79016 0.9519,2.06693 1.7481,1.27205 1.5874,1.42441 2.224,0.63425 0.7913,0.16181 0.7949,0.31772 2.2205,-0.47953 1.9051,-0.47244 1.748,-0.16181 1.4292,2.53937 c -10.2035,1.58622 -16.4811,-3.35551 -20.0102,-12.3803 l -0.7914,-1.90984 -0.952,-2.22047 -1.1102,-2.53937 -0.6342,-2.22402 -1.4292,-2.06221 -1.1138,-2.06339 -1.7444,-2.06575 -2.2241,-0.63425 -1.5815,0.31417 -0.3236,0 -0.6378,1.27205 0,1.58622 1.5898,3.49606 1.1149,2.3811 -0.1618,-3.49134 -0.1535,-2.85827 0.7878,-0.31771 1.4327,0.95197 0.9531,1.74803 1.1055,1.74331 0.6425,1.58622 c 1.7953,5.3504 4.0949,10.5732 7.2981,15.2433 l -1.7445,-0.15709 -3.8103,-0.63425 -3.8066,-0.47953 -3.3378,-0.63425 -3.3343,-1.11024 -1.9098,-0.47717 -2.2158,-4.91929 0,-4.12559 0.3142,-0.95787 c 2.9397,0.44645 5.1968,2.85945 6.1972,5.55945 2.602,2.55118 0.7902,2.83228 6.3496,6.66496 l -1.1137,-2.37756 -2.2217,-1.43386 -0.1606,-0.62953 -0.6378,-1.42913 c -0.9272,-2.02441 -5.8441,-8.28071 -6.1937,-10.3264 l -2.2193,-0.62953 -1.5862,0.62953 -1.5815,3.65788 0.3094,3.01536 0,0.63425 2.8583,5.39646 -1.2721,-0.3189 -2.3811,-1.58622 -0.9484,-2.22047 -1.5862,-2.2252 -0.8043,-2.3811 -0.4677,-1.42441 -0.7949,-4.6063 0.9472,-3.81496 0.6378,-0.79015 1.754,-1.26732 1.1055,-0.95788 0,-0.47598 -3.1819,0 -2.5347,0.95787 -0.4807,0.15591 -2.8535,-4.92047 -2.0681,-3.81496 -0.3142,-1.11024 1.5862,-0.95197 1.748,-0.47244 4.4493,-0.16181 4.1303,0.63425 4.1208,1.74803 3.6579,2.21929 z"
   id="path256"
   style="fill:#fedc00"
   inkscape:connector-curvature="0" /><path
   d="m 161.94,243.38681 1.5862,0.3189 1.5922,0.3189 0.7901,0.31889 c 0.5102,5.38937 1.5059,7.42205 4.7634,11.7472 l 1.4291,1.58622 1.2721,1.27087 1.5909,1.9063 1.7433,1.42913 1.4292,0.31418 1.1055,0.79134 c -7.7362,6.05197 -17.6374,5.73307 -26.8323,7.3063 2.4531,-4.65709 6.0307,-5.89016 10.9642,-7.14567 l 1.4208,1.74803 1.1138,-0.79371 0,-1.42559 c -3.5173,-3.27047 -6.2126,-2.51339 -10.1598,-0.4807 l -2.8535,2.22047 -2.863,2.54291 -3.0201,2.53937 -1.5815,1.11496 -3.5008,-0.47599 c -5.0953,-4.97244 -9.2846,-10.7906 -13.0146,-16.8307 -7.5744,-10.8874 10.1823,-3.42756 13.8142,-3.02008 l 2.7012,0.63425 2.6929,0.32008 2.7036,0 2.2204,-0.32008 2.067,-1.5815 0.6342,-2.22402 0.1606,-0.47598 -0.4807,-2.07165 -1.2708,-1.74449 -1.7481,-0.31417 -1.2626,1.11378 0.476,1.42913 1.4244,0 0.3189,0.3189 -0.4712,1.2685 -1.1197,0.79015 -1.2662,0.15709 -3.3354,0 -3.3342,-0.47126 -3.1725,-0.95433 -3.339,-0.6378 -1.5897,-0.15236 c 7.3689,-3.20197 15.1016,-7.29803 23.3398,-4.76693 l 2.8618,2.3811 z"
   id="path258"
   style="fill:#d51810"
   inkscape:connector-curvature="0" /><path
   d="m 258.79,249.74181 c 6.8043,0.90236 8.0634,-3.46654 14.2854,1.90512 l -6.9791,-0.63307 -5.5595,0.63307 -1.4315,0.15827 -1.748,-0.15827 -4.2839,-1.11024 -3.6496,-2.2252 -3.3295,-2.53819 -3.4996,-2.85709 -1.2638,-1.11496 c 4.6098,1.35709 11.6835,6.78307 15.7146,7.46457 l 1.7445,0.47598 z"
   id="path260"
   style="fill:#000000;stroke:none"
   inkscape:connector-curvature="0" /><path
   d="m 348.81,265.30381 10.637,4.2815 0.476,-0.63307 c -11.8996,-5.91969 -16.9358,-6.98386 -25.4079,-19.6866 7.1374,0.6626 14.5039,3.07441 20.6445,6.51142 l 2.7012,1.42323 2.2157,1.27677 0.7996,1.58622 0.4725,1.74331 c 1.2248,3.5941 4.9464,9.68504 5.0905,13.3382 -0.8173,14.2181 -0.072,12.8398 -12.3898,12.8575 l -3.176,-0.15354 -1.748,0 -1.9051,-0.16182 -4.7599,-0.94842 -4.2874,-1.75276 -3.3295,-2.85354 -3.1819,-3.49134 -1.4279,-1.90512 -6.9839,-28.7421 2.0622,-0.63425 1.9051,0.47598 0.639,0 2.2193,1.43032 2.224,1.42323 2.2158,1.90984 c 3.3437,2.93622 8.1626,8.96575 11.7567,11.276 l 2.5382,1.42913 z"
   id="path262"
   style="fill:#d51810"
   inkscape:connector-curvature="0" /><path
   d="m 128.92,260.85481 -0.6331,1.27205 -0.9531,0.63307 -1.1138,0 -3.6532,-0.47598 -2.5358,-0.48071 -2.8618,-0.47244 -2.7,-0.9567 -1.272,-0.62952 -0.3142,1.58622 c 8.6126,3.66142 7.2295,4.70433 17.6209,4.6063 l 0.6366,1.42441 c -3.5764,3.28347 -8.5264,0.96141 -12.3839,-0.63307 l -0.3154,1.10906 0.3154,1.43032 1.748,0.47598 1.2662,0.48071 3.1771,0.94724 3.0166,0.6378 3.3378,-0.16063 3.1771,-1.42441 1.4245,0.94724 0.796,1.27205 0.1571,0.6378 -2.3776,2.53937 -2.0669,1.27205 -0.7949,0.31417 -5.0834,0 -2.5335,-0.6378 c -7.3547,-2.76378 -8.8807,-5.16732 -16.5154,-8.08937 l 0.952,2.05984 1.4303,1.10906 0.6331,0.16063 1.4326,1.27205 c 3.4241,3.33543 8.452,3.99803 12.385,6.50315 l -0.3177,1.43386 c -10.7232,1.05827 -14.8736,-2.13898 -24.137,-4.9252 l -2.6964,0.47599 -1.7481,0.63779 -0.3189,0.48071 -1.4244,3.01063 0.3154,2.5441 0,0.47599 0.7901,1.74449 -4.122,0 -3.0142,-1.74449 -0.4807,-0.47599 -2.2205,-4.6063 0.1536,-4.12914 0,-1.11378 c 1.846,-5.28307 10.0665,-5.33858 13.0193,-7.4563 -5.8914,-3.93425 -6.4146,-1.46339 -3.0166,-7.14921 2.8335,-3.01063 6.5374,-2.67992 9.6839,-5.23465 7.6476,-7.08189 18.6756,-3.25039 23.1803,5.71536 l 0.9555,1.58622 z"
   id="path264"
   style="fill:#fedc00"
   inkscape:connector-curvature="0" /><path
   d="m 160.67,255.30081 0.476,0.7937 0.3153,0.79134 c -15.039,-0.37087 -14.4142,4.87087 -29.8476,-4.2874 l 0.4807,-1.58504 c 7.565,5.43425 17.1815,2.13425 25.7221,3.32953 l 2.8536,0.95787 z"
   id="path266"
   style="fill:#000000;stroke:none"
   inkscape:connector-curvature="0" /><path
   d="m 350.56,278.00281 2.3776,0.16181 1.1137,-0.95787 0.1536,-0.31418 -1.5815,-1.90512 -2.0634,-1.59095 0,-0.63779 c 10.7646,2.97284 4.1374,11.3161 -3.1807,5.2441 -5.5547,-3.12638 -4.1008,-5.50866 -8.7284,-8.73544 -3.5078,-5.40591 -4.5378,-2.07638 -8.0976,-6.18543 9.2339,2.08465 10.7433,9.29764 17.9398,13.8106 l 2.0669,1.11024 z"
   id="path268"
   style="fill:#000000;stroke:none"
   inkscape:connector-curvature="0" /><path
   d="m 115.11,282.92181 -0.6425,0.47835 -1.4291,1.5815 -2.0623,1.1185 -2.0598,0.63307 c -4.3075,-0.61299 -10.6358,-0.81142 -13.3417,-3.64843 l 0.163,-2.38701 1.4279,-1.11378 0.1536,-0.15355 1.9098,0.15355 1.9051,0.63779 6.6686,1.9063 3.3354,0.47953 3.972,0.31417 z"
   id="path270"
   style="fill:#fedc00"
   inkscape:connector-curvature="0" /><path
   d="m 223.86,321.02981 c 78.0768,3.39921 83.7,111.914 6.3461,123.36 -82.1941,4.45276 -94.0902,-110.639 -12.6957,-123.045 l 6.3496,-0.31535 z"
   id="path272"
   style="fill:#0738ac;fill-opacity:1"
   inkscape:connector-curvature="0" /><path
   d="m 197.66,366.59281 -13.3287,13.0181 0,13.1764 -13.0228,13.1811 52.5543,0 -13.0228,-13.1811 0,-13.1764 -13.1799,-13.0181 z m 52.3973,0 13.1764,13.0181 0,13.1764 13.1799,13.1811 -52.7162,0 13.1846,-13.1811 0,-13.1764 13.1752,-13.0181 z"
   id="path274"
   style="fill:#ffffff"
   inkscape:connector-curvature="0" /><polygon
   points="1413.1,556.002 1413.1,542.982 1399.92,529.804 1386.9,542.982 1386.9,556.002 1378.01,564.732 1399.92,569.339 1421.83,564.894 "
   transform="translate(-1176.06,-123.99719)"
   id="polygon278"
   style="fill:#ffffff" /><polygon
   points="1343.71,533.137 1347.21,529.804 1360.23,542.982 1360.23,555.049 1349.59,543.46 "
   transform="translate(-1176.06,-123.99719)"
   id="polygon286"
   style="fill:#ffffff" /><polygon
   points="1439.29,542.982 1452.47,529.804 1455.97,533.457 1448.03,546.789 1439.29,556.002 "
   transform="translate(-1176.06,-123.99719)"
   id="polygon292"
   style="fill:#ffffff" /><polygon
   points="1399.92,451.058 1386.9,464.235 1386.9,477.252 1373.57,490.428 1426.12,490.428 1413.1,477.252 1413.1,464.235 "
   transform="translate(-1176.06,-123.99719)"
   id="polygon302"
   style="fill:#ffffff" /><polygon
   points="1347.05,474.08 1360.23,459.471 1360.23,477.252 1373.56,490.428 1339.91,490.428 "
   transform="translate(-1176.06,-123.99719)"
   id="polygon304"
   style="fill:#ffffff" /><polygon
   points="1439.29,459.31 1452.31,473.441 1459.46,490.428 1426.12,490.428 1439.29,477.252 "
   transform="translate(-1176.06,-123.99719)"
   id="polygon310"
   style="fill:#ffffff" />
<metadata
   id="metadata4245"><rdf:RDF><cc:Work
       rdf:about=""><dc:title /><dc:format>image/svg+xml</dc:format><dc:type
         rdf:resource="http://purl.org/dc/dcmitype/StillImage" /></cc:Work></rdf:RDF></metadata><path
   inkscape:connector-curvature="0"
   d="m 223.86,321.02981 c 78.0768,3.39921 83.7,111.91401 6.3461,123.36001 -82.1941,4.45276 -94.0902,-110.63901 -12.6957,-123.04501 l 6.3496,-0.31535 z"
   id="path272-1"
   style="fill:none;stroke:#000000;stroke-width:7;stroke-miterlimit:4;stroke-opacity:1;stroke-dasharray:none" /><path
   style="fill:#ffffff"
   d="M 92.87,524.3528 23.1269,694.49286 17.9093,680.51595 92.87,496.7168 224.01,831.43074 355.16,496.4168 430.6414,680.26337 424.6386,694.9109 355.0837,524.82569 224.1625,861.42885 z"
   id="polygon158"
   inkscape:connector-curvature="0"
   sodipodi:nodetypes="ccccccccccc" /><path
   inkscape:connector-curvature="0"
   style="fill:#0738ac;fill-rule:evenodd"
   d="m 3.315,473.74999 0,140.84376 0,0.3125 c -0.041,26.93619 14.78125,65.5625 14.78125,65.5625 L 92.8775,497.40624 224.0025,832.5625 355.15875,497.40624 430.2525,680.9375 c 0,0 12.07263,-29.74719 13.8125,-51.28125 0.5268,-5.97638 0.46525,-11.954 0.46875,-17.9375 l 0,-137.96876 z"
   id="path149"
   sodipodi:nodetypes="cccccccccccc" /><path
   inkscape:connector-curvature="0"
   style="fill:#d51810;fill-rule:evenodd"
   d="M 92.8775,523.43749 22.84625,694.75 20.1275,686.5625 18.40875,690.625 c 39.541,81.828 117.58275,146.9335 205.59375,170.0625 L 191.78375,776.21875 92.8775,523.43749 z m 131.125,337.25001 c 88.043,-23.145 166.0628,-88.2097 205.625,-170.0625 l -1.625,-3.84375 -2.96875,7.8125 -69.875,-171.15626 -98.59375,251.96876 -32.5625,85.28125 z"
   id="path156" /><path
   inkscape:connector-curvature="0"
   d="m 92.24,602.20581 c 20.4319,1.24134 23.302,28.4693 3.3295,33.815 -22.2602,3.03189 -28.852,-27.3461 -6.8256,-33.5008 l 3.4961,-0.31417 z"
   id="path196"
   style="fill:#fedc00;fill-rule:evenodd" /><path
   inkscape:connector-curvature="0"
   d="m 355.8,602.20581 c -20.4354,1.23661 -23.3114,28.461 -3.3378,33.815 22.265,3.03189 28.852,-27.3508 6.8209,-33.5008 L 355.8,602.20584 z"
   id="path198"
   style="fill:#fedc00;fill-rule:evenodd" /><path
   inkscape:connector-curvature="0"
   d="m 92.24,665.23481 c 20.4319,1.22953 23.302,28.4787 3.3295,33.8126 -22.2638,3.0189 -28.865,-27.313 -6.8256,-33.4961 l 3.4961,-0.31654 z"
   id="path200"
   style="fill:#fedc00;fill-rule:evenodd" /><path
   inkscape:connector-curvature="0"
   d="m 355.8,665.23481 c -20.4307,1.2248 -23.3114,28.4752 -3.3378,33.8126 22.2685,3.0189 28.8602,-27.3177 6.8209,-33.4961 L 355.8,665.23477 z"
   id="path202"
   style="fill:#fedc00;fill-rule:evenodd" /><path
   inkscape:connector-curvature="0"
   d="m 246.79,693.53282 3.9827,0.90236 0,0.006 -0.4193,1.93701 -0.3661,1.91811 -0.313,1.89921 -0.2622,1.88386 -0.215,1.8685 -0.1677,1.85669 -0.124,1.8437 -0.079,1.83189 -0.041,1.82244 0,1.81535 0.037,1.80709 0.072,1.80354 0.1087,1.79764 0.1382,1.79528 0.1689,1.79173 0.1984,1.79055 0.2244,1.79409 0.2492,1.79291 0.2729,1.79764 0.2941,1.8 0.313,1.80591 0.3307,1.81181 0.3472,1.8189 0.3603,1.82598 0.3732,1.83661 0.3838,1.84724 0.391,1.85906 0.3992,1.87087 0.4016,1.88504 0.4063,1.89921 0.4063,1.91575 0.4051,1.93347 -3.9969,0.83149 -0.4027,-1.92165 -0.4063,-1.90866 -0.404,-1.89685 -0.4039,-1.88504 -0.3992,-1.87795 -0.3933,-1.8685 -0.3862,-1.86142 -0.378,-1.85551 -0.3649,-1.85197 -0.352,-1.84724 -0.3378,-1.84488 -0.3201,-1.8437 -0.3012,-1.84252 -0.2799,-1.84488 -0.2563,-1.84724 -0.2315,-1.84843 -0.2055,-1.85433 -0.1736,-1.86024 -0.1453,-1.86378 -0.111,-1.87323 -0.077,-1.8815 -0.039,-1.88976 0,-1.90276 0.041,-1.91221 0.084,-1.92402 0.1311,-1.93819 0.1748,-1.95118 0.2268,-1.96772 0.2764,-1.98307 0.3295,-2.00079 0.385,-2.01732 0.4406,-2.03622 0,0.006 z m 3.9827,0.90236 0,0.006 -0.011,0.0484 0.012,-0.0543 z m -4.6335,-72.489 4.0134,-0.7559 -0.01,-0.039 0.6555,3.13347 0.6201,2.96221 0.5859,2.80512 0.5503,2.65984 0.515,2.52638 0.4772,2.40236 0.4405,2.29488 0.4028,2.19449 0.3626,2.10945 0.326,2.03386 0.2846,1.97126 0.2433,1.91929 0.202,1.87913 0.1583,1.84961 0.1145,1.83071 0.072,1.82362 0.025,1.8248 -0.021,1.8378 -0.066,1.8626 -0.1158,1.89567 -0.1618,1.93937 -0.2102,1.99488 -0.2587,2.06221 -0.3059,2.14134 -0.3567,2.22992 -0.4051,2.3315 -0.4559,2.4437 -0.5055,2.56772 -0.5575,2.70473 -0.6106,2.85354 -0.6615,3.01299 -0.7145,3.18543 -3.9827,-0.90236 0.7122,-3.1689 0.6567,-2.99173 0.6035,-2.82756 0.5504,-2.67402 0.4985,-2.52992 0.4488,-2.39882 0.3956,-2.27953 0.3473,-2.1685 0.2964,-2.07284 0.2493,-1.98661 0.2007,-1.91221 0.1548,-1.84961 0.1086,-1.79882 0.064,-1.76102 0.019,-1.73622 -0.022,-1.72323 -0.067,-1.72205 -0.1098,-1.73622 -0.1512,-1.75984 -0.1925,-1.79646 -0.2339,-1.84606 -0.2752,-1.90512 -0.3165,-1.97953 -0.3555,-2.06221 -0.3957,-2.15669 -0.4358,-2.26417 -0.4724,-2.3811 -0.5103,-2.50984 -0.548,-2.65039 -0.5858,-2.80039 -0.6201,-2.96221 -0.6555,-3.13583 -0.01,-0.039 z m 0.01,0.039 -0.01,-0.039 0,-0.007 0.01,0.0461 z m 5.8512,-77.12131 4.0748,-0.26221 -0.01,-0.072 0.2031,2.50039 0.1134,2.48976 0.031,2.48268 -0.047,2.47087 -0.117,2.4626 -0.1807,2.45315 -0.235,2.44606 -0.287,2.43543 -0.3296,2.42953 -0.3673,2.42008 -0.3968,2.41299 -0.4205,2.40709 -0.4394,2.40001 -0.4488,2.39291 -0.4559,2.38937 -0.4524,2.38228 -0.4452,2.37874 -0.4323,2.37402 -0.411,2.36811 -0.3851,2.36575 -0.3531,2.36102 -0.3154,2.35748 -0.2705,2.35512 -0.2196,2.35158 -0.1642,2.35039 -0.1028,2.34685 -0.034,2.34567 0.04,2.34567 0.1181,2.34567 0.2032,2.34331 0.2953,2.34685 0.3921,2.34921 -4.0134,0.7559 -0.4181,-2.51457 -0.3165,-2.50512 -0.2174,-2.49685 -0.1252,-2.4874 -0.043,-2.47795 0.037,-2.4685 0.1075,-2.46024 0.1713,-2.45197 0.2291,-2.44134 0.2799,-2.43543 0.3225,-2.42598 0.3626,-2.42008 0.3921,-2.41299 0.4181,-2.40591 0.437,-2.4 0.4476,-2.39291 0.4548,-2.38937 0.4535,-2.38465 0.4465,-2.37874 0.4346,-2.37639 0.4158,-2.36929 0.3897,-2.36811 0.3579,-2.36339 0.3201,-2.36102 0.2775,-2.35748 0.228,-2.3563 0.1736,-2.35394 0.1099,-2.35158 0.045,-2.35039 -0.028,-2.35039 -0.1063,-2.35039 -0.1913,-2.35158 -0.01,-0.072 z m 0.01,0.072 0,-0.0354 0,-0.0366 0.01,0.072 z m 2.0787,-66.7429 -0.094,-4.08189 1.924,2.8441 -0.9956,2.42953 -0.8764,2.35866 -0.763,2.29134 -0.6567,2.22874 -0.5551,2.17205 -0.4595,2.12244 -0.3696,2.07638 -0.2859,2.03504 -0.2067,1.99961 -0.1323,1.97008 -0.064,1.94764 0,1.92874 0.059,1.91457 0.1122,1.9063 0.1607,1.90394 0.2055,1.90512 0.2433,1.91339 0.2764,1.92402 0.3059,1.94055 0.3307,1.96063 0.3472,1.98543 0.3614,2.01614 0.3697,2.05039 0.3709,2.08701 0.3661,2.12953 0.3603,2.17559 0.3448,2.22756 0.3237,2.28307 0.2988,2.34213 0.2693,2.40473 0.2315,2.47323 0.1878,2.54291 -4.0748,0.2622 -0.1831,-2.46496 -0.2244,-2.39764 -0.2599,-2.33622 -0.2917,-2.28071 -0.3165,-2.22874 -0.3378,-2.18268 -0.3532,-2.14016 -0.3638,-2.10591 -0.3685,-2.07284 -0.3673,-2.04567 -0.3638,-2.02559 -0.3519,-2.00669 -0.3355,-1.99606 -0.313,-1.9878 -0.2858,-1.98543 -0.2527,-1.98425 -0.215,-1.99252 -0.1677,-2.00315 -0.1193,-2.01496 -0.061,-2.03504 0,-2.05866 0.069,-2.08228 0.1417,-2.11417 0.2209,-2.14606 0.3071,-2.18386 0.3956,-2.2252 0.4926,-2.2689 0.5905,-2.3185 0.6992,-2.36811 0.8079,-2.42598 0.9236,-2.48622 1.0453,-2.55 1.924,2.8441 z m -0.094,-4.08189 3.1736,-0.0732 -1.2496,2.91732 -1.924,-2.8441 z m -13.1882,0.30472 13.1882,-0.30472 0.094,4.08189 -13.1882,0.30472 -1.8614,-2.97756 1.7669,-1.10433 z m -1.7669,1.10433 0.5563,-1.07598 1.2106,-0.0284 -1.7669,1.10433 z m 4.1775,69.3177 -4.0629,0.40394 -0.01,-0.0815 -0.1689,-2.37756 -0.2209,-2.33386 -0.2657,-2.2937 -0.3071,-2.25827 -0.3402,-2.2252 -0.3673,-2.19449 -0.3898,-2.1685 -0.4051,-2.14488 -0.4146,-2.12244 -0.4181,-2.10709 -0.4145,-2.09055 -0.4063,-2.07992 -0.3886,-2.06929 -0.3697,-2.06575 -0.339,-2.06102 -0.3035,-2.06339 -0.2634,-2.06457 -0.2138,-2.07165 -0.1583,-2.07874 -0.097,-2.09055 -0.027,-2.10354 0.05,-2.1189 0.1311,-2.13661 0.2233,-2.15669 0.3165,-2.17677 0.4217,-2.20158 0.5303,-2.2252 0.646,-2.25236 0.7666,-2.27953 0.8941,-2.31024 1.0263,-2.34095 1.1658,-2.37638 3.6283,1.87323 -1.0901,2.22284 -0.9555,2.18032 -0.8303,2.14016 -0.7075,2.10473 -0.5941,2.0752 -0.4878,2.04567 -0.3862,2.02205 -0.293,2.00433 -0.2043,1.98661 -0.1216,1.97362 -0.045,1.96772 0.025,1.96181 0.09,1.96063 0.1511,1.96535 0.202,1.96772 0.2516,1.97717 0.2941,1.9878 0.3295,2.00197 0.3602,2.0185 0.3839,2.03858 0.4016,2.05866 0.4145,2.08583 0.4181,2.11181 0.4193,2.14134 0.4099,2.17559 0.3968,2.20866 0.3768,2.24882 0.3496,2.28661 0.3165,2.3315 0.2752,2.37638 0.2304,2.42362 0.1759,2.47441 -0.01,-0.0815 z m -4.0629,0.40394 -0.01,-0.0567 0,-0.0248 0.01,0.0815 z m -2.4993,76.02291 -3.9779,0.92598 -0.021,-0.10394 -0.3968,-2.52047 -0.2906,-2.50866 -0.1925,-2.49449 -0.099,-2.4815 -0.015,-2.4685 0.064,-2.45669 0.1335,-2.44488 0.1996,-2.43307 0.2575,-2.42244 0.3071,-2.41299 0.3531,-2.40236 0.3886,-2.39646 0.4205,-2.38701 0.4452,-2.3811 0.4619,-2.37402 0.4736,-2.37165 0.4795,-2.36693 0.4772,-2.36221 0.4701,-2.35984 0.4535,-2.35749 0.4346,-2.35866 0.4087,-2.3563 0.3756,-2.35866 0.3342,-2.3563 0.2918,-2.36221 0.2386,-2.36221 0.183,-2.36693 0.1181,-2.37047 0.05,-2.37638 -0.026,-2.38347 -0.1063,-2.39055 -0.1937,-2.4 4.063,-0.40393 0.2055,2.54882 0.1134,2.53228 0.028,2.51575 -0.052,2.50158 -0.1252,2.48622 -0.1901,2.4685 -0.2481,2.45669 -0.3011,2.44252 -0.3461,2.42953 -0.385,2.41772 -0.4158,2.40591 -0.4417,2.39647 -0.4607,2.38583 -0.4724,2.37874 -0.4795,2.36929 -0.4772,2.36221 -0.4712,2.35512 -0.4571,2.35039 -0.4382,2.34567 -0.4134,2.33976 -0.3791,2.3374 -0.3414,2.33386 -0.2976,2.33268 -0.2481,2.33032 -0.1901,2.32913 -0.1287,2.3315 -0.059,2.3315 0.013,2.33386 0.094,2.3374 0.1807,2.34095 0.2716,2.34803 0.3709,2.35512 -0.021,-0.10394 z m -3.9779,0.92598 -0.012,-0.0496 -0.01,-0.0543 0.021,0.10394 z m 4.7693,72.4571 -3.952,-1.03228 0,-0.0106 0.6838,-2.62913 0.6307,-2.55236 0.574,-2.4815 0.5233,-2.41536 0.47,-2.35512 0.4182,-2.29843 0.3696,-2.24764 0.3189,-2.19921 0.2705,-2.15787 0.2232,-2.12362 0.1784,-2.09291 0.1323,-2.06457 0.087,-2.04449 0.045,-2.02913 0,-2.01969 -0.04,-2.01496 -0.08,-2.01378 -0.1217,-2.02087 -0.1618,-2.02913 -0.2008,-2.04567 -0.2374,-2.06693 -0.2752,-2.09291 -0.3118,-2.12244 -0.3472,-2.16024 -0.3815,-2.19803 -0.4169,-2.24528 -0.45,-2.29606 -0.4819,-2.35039 -0.5138,-2.40945 -0.5457,-2.47441 -0.5752,-2.5441 -0.6047,-2.6185 3.9779,-0.92598 0.6071,2.63504 0.58,2.56299 0.5503,2.50039 0.5209,2.4378 0.489,2.38347 0.4571,2.33386 0.424,2.2878 0.3909,2.24764 0.3567,2.21221 0.3189,2.1815 0.2847,2.15433 0.2445,2.13543 0.2078,2.11654 0.1666,2.10709 0.1263,2.09882 0.085,2.09646 0.043,2.09764 0,2.10473 -0.045,2.11654 -0.092,2.12953 -0.137,2.15197 -0.1854,2.17559 -0.2327,2.20394 -0.2799,2.23819 -0.3307,2.27717 -0.3815,2.3185 -0.4299,2.36693 -0.4843,2.42126 -0.535,2.47677 -0.5882,2.53819 -0.6425,2.60669 -0.6981,2.67874 0,-0.0106 z m -3.952,-1.03228 0,-0.0106 -0.034,0.12756 0.031,-0.11693 z m 8.1662,83.0941 3.7889,1.52362 -3.9153,-0.47008 -0.3496,-2.31024 -0.3863,-2.36929 -0.4204,-2.42598 -0.4512,-2.48032 -0.4748,-2.52756 -0.4961,-2.57126 -0.5114,-2.61142 -0.5244,-2.64803 -0.5315,-2.67874 -0.5339,-2.70709 -0.5326,-2.73189 -0.5268,-2.75079 -0.5161,-2.76732 -0.5008,-2.77913 -0.4831,-2.7874 -0.4571,-2.79213 -0.4299,-2.79213 -0.3969,-2.78976 -0.359,-2.7815 -0.3177,-2.77087 -0.2717,-2.75551 -0.2197,-2.7378 -0.1641,-2.71654 -0.1052,-2.69173 -0.039,-2.66102 0.031,-2.62913 0.1051,-2.59252 0.1842,-2.55354 0.2705,-2.50866 0.3591,-2.46142 0.4559,-2.41063 0.5539,-2.3563 3.952,1.03228 -0.5114,2.16969 -0.4229,2.23819 -0.3354,2.30079 -0.2539,2.36221 -0.1748,2.41654 -0.1004,2.46969 -0.028,2.51575 0.037,2.55945 0.1004,2.59724 0.1595,2.6315 0.2149,2.66221 0.2646,2.68701 0.3106,2.70945 0.352,2.72717 0.3898,2.74016 0.4228,2.74961 0.4524,2.75433 0.4759,2.75433 0.4961,2.75315 0.5138,2.74606 0.522,2.73425 0.5303,2.72008 0.5339,2.7 0.5315,2.67874 0.5244,2.65276 0.5138,2.62087 0.4984,2.5878 0.4795,2.54882 0.456,2.50866 0.4275,2.46142 0.3933,2.41417 0.3567,2.35984 -3.9153,-0.47008 z m 3.7889,1.52362 -2.8322,7.03937 -1.0831,-7.50945 3.9153,0.47008 z m 9.5185,-23.6575 -9.5185,23.6575 -3.7889,-1.52362 9.5185,-23.6575 3.8929,0.34606 -0.104,1.17756 z m 0.104,-1.17756 0.1264,0.60591 -0.2304,0.57165 0.104,-1.17756 z"
   id="1"
   style="fill:#ffffff;fill-rule:nonzero" /><path
   inkscape:connector-curvature="0"
   d="m 213.61,693.97082 3.9732,0.9378 0.02,-0.091 -0.4772,2.77441 -0.3933,2.78504 -0.3153,2.79567 -0.2433,2.8063 -0.1796,2.81811 -0.1216,2.8311 -0.074,2.84173 -0.028,2.85473 0.01,2.86654 0.034,2.87717 0.055,2.89016 0.071,2.90197 0.078,2.91378 0.077,2.92677 0.07,2.93622 0.054,2.95039 0.034,2.96221 0,2.9752 -0.037,2.98465 -0.079,2.99882 -0.1323,3.01063 -0.1925,3.02126 -0.2599,3.03307 -0.3342,3.04724 -0.4193,3.05669 -0.5079,3.06732 -0.6071,3.07913 -0.711,3.09095 -0.8268,3.09803 -0.946,3.10984 -1.0737,3.11929 -1.2094,3.1252 -3.7795,-1.54488 1.1551,-2.98347 1.024,-2.9752 0.9036,-2.97047 0.7889,-2.96339 0.6827,-2.95866 0.5811,-2.95394 0.489,-2.95158 0.4027,-2.94567 0.3248,-2.94331 0.2504,-2.94095 0.1878,-2.93622 0.1276,-2.93504 0.079,-2.93268 0.034,-2.93032 0,-2.92795 -0.032,-2.92441 -0.054,-2.92441 -0.07,-2.92205 -0.077,-2.91969 -0.078,-2.9185 -0.071,-2.91614 -0.055,-2.91614 -0.037,-2.9126 -0.01,-2.91142 0.031,-2.91142 0.074,-2.91024 0.1264,-2.90669 0.1842,-2.90787 0.2528,-2.90551 0.3272,-2.90433 0.4098,-2.90079 0.4984,-2.89961 0.02,-0.0909 z m -0.02,0.0909 0.01,-0.0283 0.014,-0.0626 -0.02,0.0909 z m -0.6271,-71.6126 4.0063,-0.7937 -0.01,-0.0272 0.6827,3.20433 0.6485,3.02008 0.6129,2.84764 0.5776,2.68937 0.5386,2.54291 0.502,2.41063 0.4641,2.29252 0.4229,2.18386 0.3862,2.09055 0.3437,2.01142 0.3012,1.94173 0.261,1.88504 0.215,1.8437 0.1712,1.81181 0.124,1.79055 0.078,1.78347 0.03,1.78701 -0.02,1.8 -0.069,1.82598 -0.1193,1.8626 -0.17,1.91102 -0.2209,1.97126 -0.2728,2.04331 -0.3237,2.12835 -0.3779,2.2252 -0.4299,2.33622 -0.4843,2.45787 -0.5374,2.5937 -0.5941,2.74134 -0.6496,2.90315 -0.7063,3.07795 -0.7642,3.26575 -3.9732,-0.9378 0.7594,-3.24921 0.7016,-3.05906 0.6449,-2.87953 0.587,-2.71063 0.5303,-2.55591 0.4748,-2.41299 0.4205,-2.28189 0.3661,-2.16378 0.3142,-2.05748 0.261,-1.96299 0.2115,-1.8815 0.1606,-1.81417 0.1146,-1.75866 0.064,-1.71732 0.018,-1.68898 -0.027,-1.67598 -0.073,-1.6748 -0.117,-1.68898 -0.1618,-1.71496 -0.2055,-1.7563 -0.2492,-1.80945 -0.2917,-1.87559 -0.3343,-1.95472 -0.3768,-2.04567 -0.4181,-2.15079 -0.4571,-2.26417 -0.4996,-2.39173 -0.5362,-2.53347 -0.5752,-2.68228 -0.613,-2.84764 -0.6484,-3.02244 -0.685,-3.21142 -0.01,-0.0272 z m 0.01,0.0272 -0.01,-0.0366 0,0.009 0.01,0.0272 z m 6.3177,-77.13551 4.0724,-0.29528 -0.01,-0.0874 0.2433,2.53819 0.1429,2.52756 0.053,2.51811 -0.033,2.50866 -0.1087,2.49803 -0.1795,2.4874 -0.241,2.47677 -0.2964,2.4685 -0.3449,2.45669 -0.3862,2.44843 -0.4205,2.4378 -0.4477,2.43072 -0.4689,2.42008 -0.4807,2.41181 -0.4889,2.40473 -0.4878,2.3941 -0.4819,2.38819 -0.4677,2.37756 -0.4477,2.37165 -0.4193,2.36221 -0.3874,2.35394 -0.3484,2.34685 -0.3,2.33976 -0.248,2.3315 -0.189,2.32205 -0.124,2.31732 -0.052,2.30787 0.026,2.30079 0.1087,2.29606 0.1996,2.28898 0.2952,2.28425 0.3993,2.28071 -4.0063,0.7937 -0.43,-2.46024 -0.3189,-2.45906 -0.2137,-2.45433 -0.1158,-2.44961 -0.028,-2.44488 0.057,-2.44016 0.1287,-2.43543 0.1984,-2.43071 0.2575,-2.42598 0.3118,-2.42244 0.3579,-2.41772 0.3968,-2.41299 0.4288,-2.40945 0.4547,-2.40709 0.4724,-2.40354 0.4843,-2.4 0.4878,-2.39882 0.4866,-2.39528 0.4783,-2.39291 0.4619,-2.39174 0.4405,-2.38819 0.411,-2.38819 0.3768,-2.38465 0.3354,-2.38347 0.287,-2.3811 0.2315,-2.37992 0.1701,-2.37874 0.104,-2.37756 0.031,-2.37638 -0.048,-2.37638 -0.1358,-2.37638 -0.2268,-2.37756 -0.01,-0.0874 z m 0.01,0.0874 0,-0.0449 0,-0.0425 0.01,0.0874 z m 2.0776,-66.7784 -0.099,-4.08189 1.9122,2.87717 -1.0665,2.48032 -0.9414,2.39646 -0.8197,2.32205 -0.7063,2.24764 -0.5976,2.18268 -0.4961,2.12244 -0.3992,2.06811 -0.3094,2.02205 -0.2244,1.97835 -0.1453,1.94646 -0.073,1.91811 -0.01,1.89449 0.059,1.88032 0.1146,1.86969 0.1677,1.86732 0.2138,1.8685 0.2563,1.87795 0.2941,1.89095 0.3248,1.90984 0.3519,1.93465 0.3721,1.96299 0.3862,1.99724 0.3957,2.0374 0.3992,2.0811 0.3992,2.13189 0.3886,2.18504 0.3756,2.24528 0.3543,2.30906 0.3307,2.37638 0.2977,2.45315 0.2598,2.52874 0.2173,2.61378 -4.0724,0.29528 -0.2102,-2.5311 -0.2528,-2.45315 -0.2882,-2.37992 -0.3213,-2.3126 -0.3472,-2.25236 -0.3661,-2.19803 -0.3839,-2.14724 -0.3921,-2.10354 -0.3969,-2.06693 -0.3956,-2.03504 -0.3886,-2.00669 -0.3768,-1.98661 -0.3567,-1.97244 -0.3342,-1.95945 -0.3036,-1.95709 -0.2681,-1.95827 -0.2256,-1.96299 -0.1772,-1.97598 -0.1216,-1.99016 -0.061,-2.01024 0.01,-2.03622 0.078,-2.06457 0.1571,-2.09764 0.2433,-2.13661 0.3331,-2.17795 0.4299,-2.22402 0.5315,-2.27598 0.6378,-2.32913 0.7488,-2.38937 0.8693,-2.45433 0.9886,-2.52402 1.1185,-2.59843 1.9122,2.87717 z m -0.099,-4.08189 3.2386,-0.0779 -1.3264,2.95512 -1.9122,-2.87717 z m -13.3547,0.32244 13.3547,-0.32244 0.099,4.08189 -13.3547,0.32244 -1.9618,-2.75551 1.8626,-1.32638 z m -1.8626,1.32638 0.4831,-1.29331 1.3795,-0.0331 -1.8626,1.32638 z m -1.2874,32.1898 -4.0465,0.55276 -0.01,-0.0543 -0.1582,-1.49528 -0.137,-1.41732 -0.1158,-1.34409 -0.097,-1.27559 -0.073,-1.21535 -0.053,-1.15512 -0.033,-1.10433 -0.012,-1.05827 0.012,-1.01575 0.032,-0.97559 0.054,-0.9437 0.076,-0.91536 0.099,-0.89173 0.1205,-0.87047 0.1429,-0.85158 0.1642,-0.83976 0.1866,-0.8315 0.2067,-0.82559 0.2279,-0.82441 0.2481,-0.82913 0.2669,-0.83386 0.2858,-0.84685 0.3048,-0.86693 0.3236,-0.88819 0.3413,-0.91654 0.3614,-0.95079 0.3804,-0.98858 0.398,-1.03228 0.4181,-1.08307 0.4358,-1.13976 0.4571,-1.19764 0.476,-1.26378 3.8244,1.42913 -0.4807,1.28032 -0.4618,1.21181 -0.4406,1.14449 -0.4181,1.0878 -0.398,1.02992 -0.3756,0.97913 -0.3543,0.93189 -0.3319,0.89056 -0.3118,0.85275 -0.2882,0.81969 -0.267,0.79252 -0.2456,0.76771 -0.2244,0.74882 -0.202,0.73465 -0.1831,0.72874 -0.163,0.72756 -0.1429,0.7311 -0.124,0.74055 -0.1063,0.75709 -0.085,0.77835 -0.069,0.80905 -0.047,0.83976 -0.03,0.88347 -0.01,0.92598 0.01,0.9756 0.031,1.0311 0.051,1.09134 0.071,1.1563 0.092,1.22598 0.111,1.29921 0.1347,1.37953 0.1535,1.46221 -0.01,-0.0543 z m -4.0465,0.55276 0,0.001 -0.01,-0.0555 0.01,0.0543 z m 9.4323,36.3602 -4.0606,0.42047 -0.01,-0.0827 -0.078,-1.14567 -0.09,-1.14567 -0.1004,-1.14213 -0.1122,-1.14213 -0.1205,-1.14095 -0.1311,-1.13858 -0.1394,-1.13858 -0.1476,-1.13858 -0.1547,-1.13858 -0.1618,-1.1374 -0.1677,-1.13622 -0.1748,-1.13858 -0.1796,-1.1374 -0.1842,-1.1374 -0.189,-1.13858 -0.1913,-1.14095 -0.1949,-1.13976 -0.1961,-1.14095 -0.1996,-1.14213 -0.1996,-1.14449 -0.1996,-1.14567 -0.1996,-1.14685 -0.1984,-1.14921 -0.1985,-1.15039 -0.196,-1.15512 -0.1914,-1.15394 -0.1901,-1.15866 -0.1855,-1.15984 -0.183,-1.16457 -0.1748,-1.16693 -0.1701,-1.16811 -0.1654,-1.17402 4.0465,-0.55275 0.1606,1.14803 0.1677,1.14921 0.1725,1.14567 0.1783,1.14567 0.1831,1.14567 0.1878,1.14449 0.1913,1.14449 0.1937,1.14331 0.1961,1.14331 0.1984,1.14449 0.1996,1.14449 0.1996,1.14567 0.1996,1.14449 0.1997,1.14685 0.1984,1.14803 0.1949,1.14921 0.1937,1.14803 0.1913,1.15039 0.1866,1.15394 0.1819,1.15394 0.1772,1.15748 0.1724,1.15984 0.1642,1.16102 0.1594,1.16221 0.15,1.16693 0.1441,1.16693 0.1335,1.17402 0.1252,1.17402 0.1146,1.17756 0.1051,1.18228 0.092,1.18583 0.08,1.18819 -0.01,-0.0827 z m -4.0606,0.42047 0,-0.0461 0,-0.0366 0.01,0.0827 z m -2.1437,76.06661 -4.0039,0.79606 0,-0.013 -0.4216,-2.4815 -0.3142,-2.47677 -0.215,-2.47087 -0.1204,-2.46378 -0.035,-2.45669 0.046,-2.44961 0.1181,-2.44134 0.1831,-2.43661 0.2421,-2.42835 0.2941,-2.42244 0.339,-2.41654 0.3779,-2.41181 0.4087,-2.40473 0.4346,-2.40118 0.4536,-2.39646 0.4653,-2.39055 0.4701,-2.38819 0.4701,-2.38465 0.4618,-2.37992 0.4488,-2.37756 0.4276,-2.37521 0.4027,-2.37047 0.3685,-2.36929 0.3307,-2.36811 0.2859,-2.36457 0.2338,-2.36339 0.1772,-2.36102 0.1134,-2.35984 0.045,-2.35984 -0.031,-2.35866 -0.111,-2.35984 -0.1984,-2.35984 4.0606,-0.42047 0.2126,2.51339 0.1181,2.50394 0.033,2.49331 -0.047,2.48504 -0.1205,2.47323 -0.1843,2.46496 -0.2433,2.45551 -0.2952,2.44488 -0.3402,2.43661 -0.378,2.42835 -0.4098,2.42008 -0.4346,2.41064 -0.4536,2.40591 -0.4665,2.39646 -0.4701,2.38937 -0.4701,2.38347 -0.4606,2.37638 -0.4488,2.37047 -0.4276,2.36339 -0.4016,2.35748 -0.3685,2.35276 -0.3295,2.34567 -0.2846,2.34213 -0.2327,2.33622 -0.176,2.33032 -0.111,2.32795 -0.044,2.32205 0.033,2.31732 0.1134,2.31732 0.2008,2.3126 0.2929,2.31142 0.3933,2.31142 0,-0.013 z m -4.0039,0.79606 0,-0.013 -0.027,-0.14291 0.031,0.15591 z m 4.3157,72.378 -4.011,-0.77007 0.02,-0.0886 0.7913,-3.34134 0.7287,-3.13228 0.6685,-2.93622 0.6095,-2.75315 0.5504,-2.58307 0.4901,-2.42717 0.4347,-2.28307 0.3779,-2.15433 0.3225,-2.03858 0.2705,-1.93465 0.2161,-1.84606 0.1654,-1.77284 0.1157,-1.71142 0.067,-1.66772 0.02,-1.63701 -0.026,-1.62165 -0.072,-1.62047 -0.117,-1.63819 -0.1606,-1.6689 -0.2031,-1.7126 -0.2469,-1.77165 -0.2905,-1.84488 -0.3307,-1.93228 -0.3721,-2.03268 -0.4122,-2.14606 -0.4524,-2.27362 -0.4889,-2.41299 -0.5256,-2.56536 -0.5634,-2.73189 -0.5976,-2.91142 -0.6308,-3.10512 -0.6637,-3.31063 4.0039,-0.79606 0.6614,3.29882 0.6307,3.09567 0.5953,2.90669 0.5634,2.73189 0.5279,2.57244 0.4914,2.4248 0.4547,2.29252 0.4193,2.17677 0.3791,2.07284 0.3402,1.98189 0.3,1.90866 0.2563,1.84961 0.215,1.79764 0.17,1.76575 0.124,1.74213 0.077,1.73386 0.028,1.7374 -0.023,1.75276 -0.072,1.77874 -0.1229,1.82008 -0.1748,1.87205 -0.2279,1.93819 -0.2799,2.01732 -0.3343,2.10945 -0.3898,2.21575 -0.444,2.33504 -0.4997,2.46969 -0.5574,2.62087 -0.6142,2.7815 -0.6732,2.95748 -0.7335,3.14882 -0.7961,3.35551 0.02,-0.0886 z m -4.011,-0.77007 0,-0.0225 0.015,-0.0661 -0.02,0.0886 z m -0.5291,69.8351 -3.8079,1.47165 -0.085,-1.19764 0.4807,-2.20158 0.4205,-2.20276 0.3673,-2.20039 0.313,-2.20158 0.267,-2.20158 0.2208,-2.20158 0.1807,-2.20276 0.1429,-2.20158 0.1111,-2.20276 0.079,-2.19921 0.054,-2.20276 0.031,-2.19921 0.013,-2.20039 0,-2.20039 -0.014,-2.19685 -0.021,-2.19803 -0.024,-2.19449 -0.026,-2.19567 -0.021,-2.19213 -0.013,-2.19213 0,-2.19095 0.014,-2.18622 0.033,-2.18622 0.055,-2.18386 0.084,-2.1815 0.1146,-2.17913 0.15,-2.17795 0.1878,-2.17205 0.2315,-2.17205 0.2787,-2.16732 0.3319,-2.16378 0.3839,-2.16024 4.011,0.77007 -0.3673,2.0563 -0.3154,2.06693 -0.2669,2.0752 -0.2221,2.08701 -0.183,2.09646 -0.1453,2.10709 -0.1098,2.11772 -0.082,2.12717 -0.056,2.13661 -0.031,2.14606 -0.014,2.15551 0,2.16496 0.013,2.17323 0.021,2.18268 0.024,2.19095 0.026,2.19921 0.021,2.20748 0.014,2.21575 0,2.22402 -0.013,2.2311 -0.033,2.23937 -0.054,2.24528 -0.082,2.25354 -0.1134,2.25945 -0.1476,2.26772 -0.1878,2.27362 -0.228,2.27953 -0.2764,2.28661 -0.3271,2.29134 -0.3815,2.29724 -0.4417,2.30197 -0.502,2.30551 -0.085,-1.19764 z m -3.8079,1.47165 -0.2268,-0.58701 0.1417,-0.61063 0.085,1.19764 z m 9.209,23.8134 -9.209,-23.8134 3.8079,-1.47165 9.209,23.8134 -0.014,1.50827 -3.7937,-0.0366 z m 3.7937,0.0366 -1.9417,4.75158 -1.852,-4.78819 3.7937,0.0366 z"
   id="path192"
   style="fill:#ffffff;fill-rule:nonzero" /><path
   inkscape:connector-curvature="0"
   d="m 253.06,753.81382 c -4.2957,-20.6398 -9.1772,-38.537 -4.2862,-59.8299 7.8945,-34.8567 6.5362,-38.0291 -0.6355,-72.4158 -4.8862,-25.9665 8.4827,-50.93271 5.8902,-76.83551 -1.7409,-27.0945 -11.5358,-41.6421 0,-68.5807 l -13.1882,0.30472 c -12.7807,24.7394 -1.2071,42.4536 0.3319,68.5831 2.635,26.465 -11.1756,50.62091 -6.5197,76.68781 6.6154,28.4161 8.4709,43.689 0.8043,72.404 -6.2102,23.7957 4.539,58.7516 8.0847,83.3398 l 9.5185,-23.6575 z"
   id="path153"
   style="fill:#ffffff;fill-rule:evenodd" /><path
   inkscape:connector-curvature="0"
   d="m 207.03,788.59482 c 13.337,-32.6256 2.8689,-63.9272 8.5701,-94.1551 8.4401,-35.8016 6.8504,-37.1362 -0.6307,-72.3874 -5.0114,-25.2862 9.3956,-50.61851 6.3567,-76.85911 -2.0268,-27.8882 -12.3532,-41.0575 0,-68.5843 l -13.3547,0.32244 c -5.2134,13.9488 -6.9981,15.5291 -5.2229,31.7516 1.6961,12.3957 4.5969,24.3791 5.3788,36.8469 2.6929,26.0221 -11.0941,51.09211 -6.176,76.67481 7.2401,36.3898 9.1004,35.5217 0.3082,72.391 -4.3098,22.4469 1.1445,46.1303 -4.4385,70.1858 l 9.209,23.8134 z"
   id="path190"
   style="fill:#ffffff;fill-rule:evenodd" /><path
   style="fill:#000000;fill-rule:nonzero;stroke:none"
   d="m 0.0025,288.96875 0,3.3125 0,178.15625 0,3.3125 0,132.75 0,8.40625 c 0,76.5295 43.3853,139.1045 101.125,185.4375 22.715,18.2787 48.9752,34.77905 75.25,47.46875 13.7929,5.99764 32.4219,15.3288 47.625,16.1875 15.1972,-0.84921 33.87155,-10.1946 47.65625,-16.1875 26.628,-12.8398 52.1488,-29.03645 75.25,-47.46875 57.3874,-46.3158 101.24475,-109.1055 100.96875,-185.4375 l 0,-6.1875 0,-131.625 0,-3.34375 0,-3.3125 0,-178.15625 0,-3.3125 -3.34375,0 -441.1875,0 -3.34375,0 z m 6.65625,6.65625 434.5625,0 0,174.8125 -434.5625,0 0,-174.8125 z m 0,181.46875 434.5625,0 0,131.625 0,6.1875 c 0.013,74.7 -42.5938,134.76975 -98.4375,180.34375 -23.6976,18.4287 -46.9445,33.47885 -74,46.53125 -12.6815,5.90788 -30.70375,14.2219 -44.78125,15.5625 -14.0941,-1.35 -32.0508,-9.64632 -44.75,-15.5625 -26.6917,-12.8953 -50.672,-28.24185 -74,-46.53125 C 49.4194,750.1 6.53595,689.26125 6.65875,614.90625 l 0,-8.40625 0,-129.40625 z"
   id="polygon3254"
   inkscape:connector-curvature="0" /></svg>