          <svg
            viewBox="0 0 395.52 103.95140897596653"
            height="   40"
            width="200"
          >
            <g>
              <svg
                viewBox="0 0 492.90511914527065 129.5463734491746"
                height="103.95140897596653"
                width="395.52"
              >
                <g transform="matrix(1,0,0,1,97.38511914527064,40.031709748045174)">
                  <svg
                    viewBox="0 0 395.52 49.48295395308427"
                    height="49.48295395308427"
                    width="395.52"
                  >
                    <g id="textblocktransform">
                      <svg
                        viewBox="0 0 395.52 49.48295395308427"
                        height="49.48295395308427"
                        width="395.52"
                        id="textblock"
                      >
                        <g>
                          <svg
                            viewBox="0 0 395.52 49.48295395308427"
                            height="49.48295395308427"
                            width="395.52"
                          >
                            <g transform="matrix(1,0,0,1,0,0)">
                              <svg
                                width="395.52"
                                viewBox="4.699999809265137 -35.5 287.72998046875 36"
                                height="49.48295395308427"
                                data-palette-color="#000000"
                              >
                                <path
                                  d="M4.7 0L4.7-35 20-35Q25.6-35 29.95-32.83 34.3-30.65 36.7-26.68 39.1-22.7 39.1-17.5L39.1-17.5Q39.1-12.3 36.7-8.33 34.3-4.35 29.95-2.18 25.6 0 20 0L20 0 4.7 0ZM11.2-5.5L19.7-5.5Q23.55-5.5 26.48-6.98 29.4-8.45 30.98-11.18 32.55-13.9 32.55-17.5L32.55-17.5Q32.55-21.1 30.98-23.83 29.4-26.55 26.48-28.03 23.55-29.5 19.7-29.5L19.7-29.5 11.2-29.5 11.2-5.5ZM71.7 0L68.2-8.1 50.7-8.1 47.25 0 40.55 0 56.3-35 62.7-35 78.5 0 71.7 0ZM52.9-13.2L66.05-13.2 59.45-28.5 52.9-13.2ZM88.3 0L88.3-29.5 76.7-29.5 76.7-35 106.4-35 106.4-29.5 94.8-29.5 94.8 0 88.3 0ZM135.74 0L132.24-8.1 114.74-8.1 111.29 0 104.59 0 120.34-35 126.74-35 142.54 0 135.74 0ZM116.94-13.2L130.09-13.2 123.49-28.5 116.94-13.2ZM176.89 0L169.89 0 162.74-10.25Q162.29-10.2 161.39-10.2L161.39-10.2 153.49-10.2 153.49 0 146.99 0 146.99-35 161.39-35Q165.94-35 169.32-33.5 172.69-32 174.49-29.2 176.29-26.4 176.29-22.55L176.29-22.55Q176.29-18.6 174.37-15.75 172.44-12.9 168.84-11.5L168.84-11.5 176.89 0ZM169.74-22.55Q169.74-25.9 167.54-27.7 165.34-29.5 161.09-29.5L161.09-29.5 153.49-29.5 153.49-15.55 161.09-15.55Q165.34-15.55 167.54-17.38 169.74-19.2 169.74-22.55L169.74-22.55ZM199.89 0.5Q194.54 0.5 190.24-1.83 185.94-4.15 183.49-8.28 181.04-12.4 181.04-17.5L181.04-17.5Q181.04-22.6 183.49-26.73 185.94-30.85 190.24-33.18 194.54-35.5 199.89-35.5L199.89-35.5Q205.24-35.5 209.54-33.18 213.84-30.85 216.29-26.75 218.74-22.65 218.74-17.5L218.74-17.5Q218.74-12.35 216.29-8.25 213.84-4.15 209.54-1.83 205.24 0.5 199.89 0.5L199.89 0.5ZM199.89-5.2Q203.39-5.2 206.19-6.78 208.99-8.35 210.59-11.18 212.19-14 212.19-17.5L212.19-17.5Q212.19-21 210.59-23.83 208.99-26.65 206.19-28.23 203.39-29.8 199.89-29.8L199.89-29.8Q196.39-29.8 193.59-28.23 190.79-26.65 189.19-23.83 187.59-21 187.59-17.5L187.59-17.5Q187.59-14 189.19-11.18 190.79-8.35 193.59-6.78 196.39-5.2 199.89-5.2L199.89-5.2ZM241.99 0.5Q236.64 0.5 232.34-1.83 228.04-4.15 225.59-8.28 223.14-12.4 223.14-17.5L223.14-17.5Q223.14-22.6 225.59-26.73 228.04-30.85 232.34-33.18 236.64-35.5 241.99-35.5L241.99-35.5Q247.34-35.5 251.64-33.18 255.94-30.85 258.39-26.75 260.84-22.65 260.84-17.5L260.84-17.5Q260.84-12.35 258.39-8.25 255.94-4.15 251.64-1.83 247.34 0.5 241.99 0.5L241.99 0.5ZM241.99-5.2Q245.49-5.2 248.29-6.78 251.09-8.35 252.69-11.18 254.29-14 254.29-17.5L254.29-17.5Q254.29-21 252.69-23.83 251.09-26.65 248.29-28.23 245.49-29.8 241.99-29.8L241.99-29.8Q238.49-29.8 235.69-28.23 232.89-26.65 231.29-23.83 229.69-21 229.69-17.5L229.69-17.5Q229.69-14 231.29-11.18 232.89-8.35 235.69-6.78 238.49-5.2 241.99-5.2L241.99-5.2ZM274.33 0L274.33-29.5 262.73-29.5 262.73-35 292.43-35 292.43-29.5 280.83-29.5 280.83 0 274.33 0Z"
                                  opacity="1"
                                  transform="matrix(1,0,0,1,0,0)"
                                  fill="#000000"
                                  class="wordmark-text-0"
                                  data-fill-palette-color="primary"
                                  id="text-0"
                                ></path>
                              </svg>
                            </g>
                          </svg>
                        </g>
                      </svg>
                    </g>
                  </svg>
                </g>
                <g>
                  <svg
                    viewBox="0 0 85.70338130784232 129.5463734491746"
                    height="129.5463734491746"
                    width="85.70338130784232"
                  >
                    <g>
                      <svg
                        xmlns="http://www.w3.org/2000/svg"
                        xmlns:xlink="http://www.w3.org/1999/xlink"
                        xml:space="preserve"
                        version="1.1"
                        style="shape-rendering:geometricPrecision;text-rendering:geometricPrecision;image-rendering:optimizeQuality;"
                        viewBox="0 0.21224617958068848 197.2659912109375 298.1806945800781"
                        x="0"
                        y="0"
                        fill-rule="evenodd"
                        clip-rule="evenodd"
                        width="85.70338130784232"
                        height="129.5463734491746"
                        class="icon-icon-0"
                        data-fill-palette-color="accent"
                        id="icon-0"
                      >
                        <g fill="#be2626" data-fill-palette-color="accent">
                          <path
                            class=""
                            d="M92 87c0-19-12-25-2-33 3-1 2-5 2-8 0-14 0-28 0-43 7-4 33-4 30 2-2 6 2 13 2 19 2 24 4 48 4 72 0 3 2 5 5 6 7 5 10 6 16 12 7 7 10 10 20 13 5 2 26 7 28 10 1 2-1 3-3 3-4-1-10-3-14-4-12-2-22-4-32-11-1-1-6-4-8-3-2 1 0 6 1 8 1 3 5 6 8 9 2 1 8 8 7 10 0 2-2 1-3 0-2-1-6-5-8-7-4-3-7-4-11-7-1-1-4-6-6-4-1 1 0 7 0 9 3 7 10 10 17 12 4 1 6 3 10 3 4 2 7 3 11 4 15 6 18 11 27 22 0 1 2 3 0 3-3 1-9-7-11-9-8-8-16-9-26-11-3-1-4-1-4 2 0 5 7 22 9 26 3 5 7 8 11 12 0 1 5 7 3 8-2 0-6-5-7-7-5-6-9-7-13-15-6-10-12-25-26-27-4 0-4 2-5 6 0 0 0 1 0 1-1 7 2 15 7 21 4 4 8 8 12 12 2 2 6 5 9 8 8 6 12 9 18 19 2 5 4 8 8 12 1 1 6 5 4 6-1 0-4-2-5-3-6-5-8-8-11-14-4-5-8-9-14-11-3-1-6-1-5 3 1 1 1 2 1 2 1 5 9 21 8 24-1 2-3 1-3 0-2-2-5-10-7-13-2-4-4-8-6-13-1-3-4-9-6-11-4-3-5 20-5 21 0 3 2 12 0 13-1 2-2 0-2-1-1-2-2-7-2-10-1-4-1-9-1-13 0-2-2-18-6-10-2 4-4 11-5 16-1 5-1 10-1 15 0 3 0 7 0 10 1 4 0 9 0 14 1 4 1 8 3 13 1 2 2 4 3 7 0 1 2 9 4 10 1 1-2 3-4-1 0-1-1-3-1-3-1-3-2-5-3-7-1-2-2-4-3-6-2-4-5-21-6-8 0 2 0 6-2 8-4 2-2-10-2-11 0-6 0-11 0-16 0-3 2-14-5-7-3 3-4 8-6 11-1 3-6 14-9 15-2 0-1-2-1-3 1-4 4-8 5-12 2-3 2-5 3-9 1-6 5-11 7-17 2-6 4-12 4-18 0-2 0-5 0-7 0-2 0-8-2-9l-1 0c-3-1-6 3-9 5-3 3-2 3-3 6-2 4-4 10-6 14-5 10-8 13-8 25 0 3-1 14-3 15-2 1-2-3-2-4 0-4 0-6 0-10-1-4-1-7-3-10-1-4-1-6 1-9 3-4 3 0 7-6 1-2 5-10 4-11 0-1-1-1-2-1-5-1-9 3-12 6-5 3-9 5-14 6-1 0-5 1-4-1 0-2 7-5 10-6 5-3 7-7 12-11 4-3 9-5 13-8 6-4 7-7 11-12 3-2 9-8 9-11 1-2 0-7-2-8-1-1-3-1-5-1-6 0-16 3-20 7-5 3-8 9-9 15-3 11-10 12-19 17-1 1-3 2-4 0-1-3 10-7 12-9 7-5 4-9 7-15 5-14 9-17 21-24 7-4 15-11 15-20 0-2-1-3-4-4-5-1-12 2-17 4-5 3-14 9-18 13-3 3-5 5-7 7-4 4-8 9-9 14-3 8-4 8-10 14-1 1-3 3-3 1 0-1 5-6 6-8 3-4 4-9 6-13 3-5 4-8 8-12 3-3 6-7 9-10 2-2 12-12 3-10-4 0-9 3-13 5-9 5-15 18-22 26-6 6-12 9-19 13-4 2-4 0 0-3 5-4 9-5 14-11 4-3 8-10 11-15 5-7 9-13 16-17 9-5 13-7 22-9 7-2 19-7 23-12 3-3 2-6 2-11 1-3 1-7 1-11z"
                            fill="#be2626"
                            data-fill-palette-color="accent"
                          ></path>
                        </g>
                      </svg>
                    </g>
                  </svg>
                </g>
              </svg>
            </g>
            <defs></defs>
          </svg>